<svg width="941" height="911" viewBox="0 0 941 911" fill="none" xmlns="http://www.w3.org/2000/svg">
<g filter="url(#filter0_d)">
<rect x="226.109" y="582.068" width="16.4013" height="17.6121" rx="6" transform="rotate(19.5883 226.109 582.068)" fill="#B5B8C6"/>
<mask id="mask0" mask-type="alpha" maskUnits="userSpaceOnUse" x="220" y="582" width="22" height="23">
<rect x="226.109" y="582.068" width="16.4013" height="17.6121" rx="6" transform="rotate(19.5883 226.109 582.068)" fill="#B5B8C6"/>
</mask>
<g mask="url(#mask0)">
<rect x="221.472" y="582.225" width="14.285" height="15.6979" rx="4" transform="rotate(-1.94722 221.472 582.225)" fill="#EDF0FF"/>
</g>
<rect x="229.897" y="565.657" width="16.4013" height="17.6121" rx="6" transform="rotate(-24.0634 229.897 565.657)" fill="#B5B8C6"/>
<mask id="mask1" mask-type="alpha" maskUnits="userSpaceOnUse" x="229" y="558" width="24" height="24">
<rect x="229.897" y="565.657" width="16.4013" height="17.6121" rx="6" transform="rotate(-24.0634 229.897 565.657)" fill="#B5B8C6"/>
</mask>
<g mask="url(#mask1)">
<rect x="226.651" y="568.972" width="14.285" height="15.6979" rx="4" transform="rotate(-45.5988 226.651 568.972)" fill="#EDF0FF"/>
</g>
<rect x="246.166" y="589.051" width="16.4013" height="17.6121" rx="6" transform="rotate(-24.0634 246.166 589.051)" fill="#B5B8C6"/>
<mask id="mask2" mask-type="alpha" maskUnits="userSpaceOnUse" x="246" y="582" width="23" height="24">
<rect x="246.166" y="589.051" width="16.4013" height="17.6121" rx="6" transform="rotate(-24.0634 246.166 589.051)" fill="#B5B8C6"/>
</mask>
<g mask="url(#mask2)">
<rect x="242.92" y="592.366" width="14.285" height="15.6979" rx="4" transform="rotate(-45.5988 242.92 592.366)" fill="#EDF0FF"/>
</g>
<rect x="271.835" y="603.701" width="16.4013" height="17.6121" rx="6" transform="rotate(34.5883 271.835 603.701)" fill="#B5B8C6"/>
<mask id="mask3" mask-type="alpha" maskUnits="userSpaceOnUse" x="261" y="603" width="25" height="25">
<rect x="271.835" y="603.701" width="16.4013" height="17.6121" rx="6" transform="rotate(34.5883 271.835 603.701)" fill="#B5B8C6"/>
</mask>
<g mask="url(#mask3)">
<rect x="267.315" y="602.653" width="14.285" height="15.6979" rx="4" transform="rotate(13.0528 267.315 602.653)" fill="#EDF0FF"/>
</g>
<rect x="282.983" y="576.497" width="18.3963" height="19.7545" rx="6" transform="rotate(49.5883 282.983 576.497)" fill="#B5B8C6"/>
<mask id="mask4" mask-type="alpha" maskUnits="userSpaceOnUse" x="270" y="578" width="23" height="23">
<rect x="282.983" y="576.497" width="18.3963" height="19.7545" rx="6" transform="rotate(49.5883 282.983 576.497)" fill="#B5B8C6"/>
</mask>
<g mask="url(#mask4)">
<rect x="278.391" y="574.05" width="16.0227" height="17.6074" rx="4" transform="rotate(28.0528 278.391 574.05)" fill="#EDF0FF"/>
</g>
<rect x="251.773" y="616.241" width="18.5833" height="19.9553" rx="6" transform="rotate(49.5883 251.773 616.241)" fill="#B5B8C6"/>
<mask id="mask5" mask-type="alpha" maskUnits="userSpaceOnUse" x="239" y="618" width="23" height="23">
<rect x="251.773" y="616.241" width="18.5833" height="19.9553" rx="6" transform="rotate(49.5883 251.773 616.241)" fill="#B5B8C6"/>
</mask>
<g mask="url(#mask5)">
<rect x="247.134" y="613.769" width="16.1855" height="17.7863" rx="4" transform="rotate(28.0528 247.134 613.769)" fill="#EDF0FF"/>
</g>
<rect x="295.342" y="562.455" width="10.716" height="11.5071" rx="5.35799" transform="rotate(49.5883 295.342 562.455)" fill="#B5B8C6"/>
<mask id="mask6" mask-type="alpha" maskUnits="userSpaceOnUse" x="288" y="564" width="13" height="12">
<rect x="295.342" y="562.456" width="10.716" height="11.5071" rx="5.35799" transform="rotate(49.5883 295.342 562.456)" fill="#B5B8C6"/>
</mask>
<g mask="url(#mask6)">
<rect x="292.667" y="561.03" width="9.33331" height="10.2564" rx="4" transform="rotate(28.0528 292.667 561.03)" fill="#EDF0FF"/>
</g>
<rect x="284.47" y="556.527" width="7.15332" height="7.68143" rx="3.57666" transform="rotate(49.5883 284.47 556.527)" fill="#B5B8C6"/>
<mask id="mask7" mask-type="alpha" maskUnits="userSpaceOnUse" x="280" y="557" width="8" height="9">
<rect x="284.47" y="556.527" width="7.15332" height="7.68143" rx="3.57666" transform="rotate(49.5883 284.47 556.527)" fill="#B5B8C6"/>
</mask>
<g mask="url(#mask7)">
<rect x="282.685" y="555.575" width="6.23033" height="6.84653" rx="3.11517" transform="rotate(28.0528 282.685 555.575)" fill="#EDF0FF"/>
</g>
<rect x="269.971" y="542.157" width="7.15332" height="7.68143" rx="3.57666" transform="rotate(49.5883 269.971 542.157)" fill="#B5B8C6"/>
<mask id="mask8" mask-type="alpha" maskUnits="userSpaceOnUse" x="265" y="543" width="9" height="9">
<rect x="269.971" y="542.157" width="7.15332" height="7.68143" rx="3.57666" transform="rotate(49.5883 269.971 542.157)" fill="#B5B8C6"/>
</mask>
<g mask="url(#mask8)">
<rect x="268.185" y="541.206" width="6.23033" height="6.84653" rx="3.11517" transform="rotate(28.0528 268.185 541.206)" fill="#EDF0FF"/>
</g>
<rect x="269.453" y="632.077" width="7.15332" height="7.68143" rx="3.57666" transform="rotate(49.5883 269.453 632.077)" fill="#B5B8C6"/>
<mask id="mask9" mask-type="alpha" maskUnits="userSpaceOnUse" x="265" y="633" width="8" height="9">
<rect x="269.453" y="632.077" width="7.15332" height="7.68143" rx="3.57666" transform="rotate(49.5883 269.453 632.077)" fill="#B5B8C6"/>
</mask>
<g mask="url(#mask9)">
<rect x="267.667" y="631.125" width="6.23033" height="6.84653" rx="3.11517" transform="rotate(28.0528 267.667 631.125)" fill="#EDF0FF"/>
</g>
<rect x="251.812" y="560.509" width="16.4013" height="17.6121" rx="6" transform="rotate(-24.0634 251.812 560.509)" fill="#B5B8C6"/>
<mask id="mask10" mask-type="alpha" maskUnits="userSpaceOnUse" x="251" y="553" width="23" height="24">
<rect x="251.812" y="560.509" width="16.4013" height="17.6121" rx="6" transform="rotate(-24.0634 251.812 560.509)" fill="#B5B8C6"/>
</mask>
<g mask="url(#mask10)">
<rect x="248.566" y="563.824" width="14.285" height="15.6979" rx="4" transform="rotate(-45.5988 248.566 563.824)" fill="#EDF0FF"/>
</g>
<rect width="12.8256" height="13.7266" rx="6" transform="matrix(0.91246 -0.409166 0.406321 0.91373 210.235 559.631)" fill="#B5B8C6"/>
<mask id="mask11" mask-type="alpha" maskUnits="userSpaceOnUse" x="212" y="556" width="14" height="15">
<rect width="12.8256" height="13.7267" rx="6" transform="matrix(0.91246 -0.409166 0.406321 0.91373 210.235 559.631)" fill="#B5B8C6"/>
</mask>
<g mask="url(#mask11)">
<rect x="207.695" y="562.225" width="11.1776" height="12.2271" rx="4" transform="rotate(-45.5988 207.695 562.225)" fill="#EDF0FF"/>
</g>
<rect width="17.1886" height="18.3962" rx="6" transform="matrix(0.996918 0.0784444 -0.0815501 0.996669 137.445 554.135)" fill="#B5B8C6"/>
<mask id="mask12" mask-type="alpha" maskUnits="userSpaceOnUse" x="136" y="554" width="19" height="20">
<rect width="17.1886" height="18.3962" rx="6" transform="matrix(0.996918 0.0784444 -0.0815501 0.996669 137.445 554.135)" fill="#B5B8C6"/>
</mask>
<g mask="url(#mask12)">
<rect x="132.791" y="555.553" width="14.98" height="16.3866" rx="4" transform="rotate(-16.9472 132.791 555.553)" fill="#EDF0FF"/>
</g>
<rect width="15.4648" height="15.3561" rx="6" transform="matrix(0.963416 -0.26801 0.196718 0.98046 116.627 543.75)" fill="#B5B8C6"/>
<mask id="mask13" mask-type="alpha" maskUnits="userSpaceOnUse" x="117" y="540" width="17" height="18">
<rect width="15.4648" height="15.3561" rx="6" transform="matrix(0.963416 -0.26801 0.196718 0.98046 116.627 543.75)" fill="#B5B8C6"/>
</mask>
<g mask="url(#mask13)">
<rect x="112.999" y="546.296" width="13.6482" height="13.4714" rx="4" transform="rotate(-35.0632 112.999 546.296)" fill="#EDF0FF"/>
</g>
<rect width="15.4648" height="15.3561" rx="6" transform="matrix(0.99576 0.0919936 -0.164688 0.986346 131.657 526.149)" fill="#B5B8C6"/>
<mask id="mask14" mask-type="alpha" maskUnits="userSpaceOnUse" x="130" y="526" width="17" height="17">
<rect width="15.4648" height="15.3561" rx="6" transform="matrix(0.99576 0.0919936 -0.164688 0.986346 131.657 526.149)" fill="#B5B8C6"/>
</mask>
<g mask="url(#mask14)">
<rect x="127.36" y="527.239" width="13.6482" height="13.4714" rx="4" transform="rotate(-14.239 127.36 527.239)" fill="#EDF0FF"/>
</g>
<rect width="9.65177" height="9.58397" rx="4.79198" transform="matrix(0.99576 0.0919936 -0.164688 0.986346 122.503 513.909)" fill="#B5B8C6"/>
<mask id="mask15" mask-type="alpha" maskUnits="userSpaceOnUse" x="121" y="514" width="11" height="10">
<rect width="9.65177" height="9.58397" rx="4.79198" transform="matrix(0.99576 0.0919936 -0.164688 0.986346 122.503 513.909)" fill="#B5B8C6"/>
</mask>
<g mask="url(#mask15)">
<rect x="119.822" y="514.589" width="8.51802" height="8.4077" rx="4" transform="rotate(-14.239 119.822 514.589)" fill="#EDF0FF"/>
</g>
<rect width="6.80908" height="6.76125" rx="3.38063" transform="matrix(0.99576 0.0919935 -0.164688 0.986346 211.462 540.19)" fill="#B5B8C6"/>
<mask id="mask16" mask-type="alpha" maskUnits="userSpaceOnUse" x="210" y="540" width="8" height="8">
<rect width="6.80908" height="6.76125" rx="3.38063" transform="matrix(0.99576 0.0919936 -0.164688 0.986346 211.462 540.19)" fill="#B5B8C6"/>
</mask>
<g mask="url(#mask16)">
<rect x="209.571" y="540.67" width="6.00925" height="5.93143" rx="2.96571" transform="rotate(-14.239 209.571 540.67)" fill="#EDF0FF"/>
</g>
<rect width="5.02106" height="6.00501" rx="2.51053" transform="matrix(0.983735 0.179625 -0.0794504 0.996839 106.148 509.211)" fill="#B5B8C6"/>
<mask id="mask17" mask-type="alpha" maskUnits="userSpaceOnUse" x="105" y="509" width="6" height="7">
<rect width="5.02106" height="6.00501" rx="2.51053" transform="matrix(0.983735 0.179625 -0.0794503 0.996839 106.148 509.211)" fill="#B5B8C6"/>
</mask>
<g mask="url(#mask17)">
<rect x="104.802" y="509.553" width="4.27513" height="5.44716" rx="2.13757" transform="rotate(-14.239 104.802 509.553)" fill="#EDF0FF"/>
</g>
<rect width="5.02106" height="6.00501" rx="2.51053" transform="matrix(0.983735 0.179625 -0.0794504 0.996839 116.224 502.241)" fill="#B5B8C6"/>
<mask id="mask18" mask-type="alpha" maskUnits="userSpaceOnUse" x="115" y="502" width="6" height="7">
<rect width="5.02106" height="6.00501" rx="2.51053" transform="matrix(0.983735 0.179625 -0.0794503 0.996839 116.224 502.241)" fill="#B5B8C6"/>
</mask>
<g mask="url(#mask18)">
<rect x="114.878" y="502.583" width="4.27513" height="5.44716" rx="2.13757" transform="rotate(-14.239 114.878 502.583)" fill="#EDF0FF"/>
</g>
<rect x="199.049" y="541.86" width="16.4013" height="17.6121" rx="6" transform="rotate(60.0491 199.049 541.86)" fill="#B5B8C6"/>
<mask id="mask19" mask-type="alpha" maskUnits="userSpaceOnUse" x="183" y="541" width="25" height="24">
<rect x="199.049" y="541.86" width="16.4013" height="17.6121" rx="6" transform="rotate(60.0491 199.049 541.86)" fill="#B5B8C6"/>
</mask>
<g mask="url(#mask19)">
<rect x="195.419" y="538.971" width="14.285" height="15.6979" rx="4" transform="rotate(38.5136 195.419 538.971)" fill="#EDF0FF"/>
</g>
<rect width="13.6346" height="14.8911" rx="6" transform="matrix(0.939422 0.342764 -0.327859 0.944727 165.113 547.243)" fill="#B5B8C6"/>
<mask id="mask20" mask-type="alpha" maskUnits="userSpaceOnUse" x="161" y="548" width="16" height="17">
<rect width="13.6346" height="14.8911" rx="6" transform="matrix(0.939422 0.342764 -0.327859 0.944727 165.113 547.243)" fill="#B5B8C6"/>
</mask>
<g mask="url(#mask20)">
<rect x="161.27" y="547.374" width="11.8376" height="13.3133" rx="4" transform="rotate(-1.94722 161.27 547.374)" fill="#EDF0FF"/>
</g>
<rect width="11.379" height="12.5231" rx="5.68952" transform="matrix(0.938164 0.34619 -0.324549 0.945869 172.672 530.977)" fill="#B5B8C6"/>
<mask id="mask21" mask-type="alpha" maskUnits="userSpaceOnUse" x="170" y="532" width="12" height="14">
<rect width="11.379" height="12.5231" rx="5.68952" transform="matrix(0.938164 0.34619 -0.324549 0.945869 172.672 530.977)" fill="#B5B8C6"/>
</mask>
<g mask="url(#mask21)">
<rect x="169.469" y="531.086" width="9.86467" height="11.2112" rx="4" transform="rotate(-1.94722 169.469 531.086)" fill="#EDF0FF"/>
</g>
</g>
<g filter="url(#filter1_d)">
<path d="M145.12 308.3C145.095 308.284 145.07 308.268 145.045 308.252C144.271 307.758 143.159 307.04 141.813 306.143C139.12 304.349 135.494 301.842 131.759 298.993C128.02 296.141 124.19 292.96 121.077 289.815C117.937 286.643 115.637 283.614 114.808 281.073C111.325 270.406 116.398 259.355 125.889 256.256C135.381 253.157 145.997 259.086 149.48 269.753C150.325 272.342 150.497 276.099 150.228 280.381C149.96 284.635 149.267 289.297 148.456 293.634C147.646 297.968 146.723 301.96 146.002 304.869C145.645 306.309 145.338 307.483 145.12 308.3Z" fill="#5DAA43" stroke="#C1E445" stroke-width="2"/>
<path d="M175.448 326.227C175.435 326.201 175.421 326.175 175.407 326.148C174.983 325.334 174.38 324.156 173.663 322.706C172.228 319.805 170.341 315.822 168.531 311.487C166.719 307.147 164.992 302.477 163.869 298.198C162.736 293.88 162.258 290.107 162.81 287.492C165.128 276.513 175.047 269.478 184.816 271.54C194.585 273.602 200.815 284.045 198.498 295.025C197.935 297.689 196.205 301.028 193.831 304.602C191.473 308.153 188.541 311.843 185.67 315.194C182.802 318.543 180.007 321.538 177.928 323.697C176.899 324.766 176.046 325.629 175.448 326.227Z" fill="#5DAA43" stroke="#C1E445" stroke-width="2"/>
<path d="M218.748 282.419C218.734 282.393 218.721 282.367 218.707 282.34C218.283 281.526 217.679 280.348 216.962 278.898C215.527 275.997 213.641 272.014 211.83 267.679C210.018 263.339 208.292 258.669 207.169 254.39C206.036 250.072 205.558 246.299 206.11 243.684C208.428 232.705 218.346 225.67 228.116 227.732C237.885 229.794 244.115 240.237 241.797 251.217C241.235 253.881 239.505 257.22 237.131 260.794C234.772 264.345 231.841 268.035 228.97 271.386C226.102 274.735 223.306 277.73 221.227 279.889C220.198 280.958 219.346 281.821 218.748 282.419Z" fill="#5DAA43" stroke="#C1E445" stroke-width="2"/>
<path d="M124.423 315.369C124.395 315.375 124.366 315.382 124.337 315.388C123.44 315.587 122.146 315.865 120.56 316.183C117.387 316.818 113.051 317.609 108.395 318.236C103.735 318.863 98.7767 319.322 94.3525 319.299C89.8888 319.276 86.121 318.761 83.7377 317.551C73.7321 312.471 69.5046 301.069 74.0249 292.166C78.5452 283.264 90.2447 279.949 100.25 285.029C102.678 286.262 105.456 288.797 108.294 292.016C111.113 295.213 113.919 299 116.413 302.64C118.905 306.277 121.074 309.752 122.622 312.319C123.388 313.59 124 314.637 124.423 315.369Z" fill="#5DAA43" stroke="#C1E445" stroke-width="2"/>
<path d="M145.059 371.712C145.031 371.718 145.002 371.725 144.973 371.731C144.076 371.93 142.782 372.208 141.196 372.526C138.023 373.161 133.687 373.952 129.031 374.579C124.37 375.206 119.412 375.665 114.988 375.642C110.524 375.619 106.757 375.104 104.373 373.894C94.3678 368.814 90.1403 357.412 94.6607 348.51C99.181 339.607 110.88 336.292 120.886 341.372C123.314 342.605 126.092 345.141 128.929 348.359C131.748 351.556 134.554 355.343 137.048 358.983C139.54 362.62 141.71 366.095 143.257 368.662C144.023 369.933 144.636 370.98 145.059 371.712Z" fill="#5DAA43" stroke="#C1E445" stroke-width="2"/>
<path d="M242.138 433.118C208.717 433.118 175.199 393.585 167.084 368.727C158.968 343.869 141.689 300.667 134.064 282.173" stroke="#C1E445" stroke-width="4"/>
<path d="M180.093 296.379C177.026 313.873 172.958 335.779 171.964 341.446C170.354 350.617 164.341 370.614 179.126 391.494" stroke="#C1E445" stroke-width="4"/>
<path d="M158.358 343.979C147.32 323.77 114.183 312.046 95.846 303.136" stroke="#C1E445" stroke-width="4"/>
<path d="M222.917 256.724C218.378 322.213 164.486 339.048 171.543 377.274" stroke="#C1E445" stroke-width="4"/>
<path d="M174.721 383.876L115.67 359.266" stroke="#C1E445" stroke-width="4"/>
</g>
<g filter="url(#filter2_d)">
<path d="M382.379 745.687C382.403 745.67 382.427 745.654 382.452 745.637C383.215 745.126 384.311 744.383 385.636 743.456C388.288 741.601 391.856 739.014 395.526 736.081C399.2 733.145 402.957 729.878 405.998 726.664C409.065 723.422 411.296 720.342 412.068 717.783C415.31 707.04 409.989 696.106 400.43 693.222C390.87 690.338 380.39 696.505 377.149 707.248C376.363 709.855 376.276 713.615 376.642 717.89C377.005 722.137 377.804 726.782 378.712 731.1C379.619 735.415 380.632 739.385 381.419 742.277C381.808 743.708 382.142 744.875 382.379 745.687Z" fill="#5DAA43" stroke="#C1E445" stroke-width="2"/>
<path d="M352.463 764.294C352.476 764.268 352.489 764.241 352.502 764.214C352.907 763.39 353.484 762.199 354.168 760.733C355.537 757.801 357.334 753.776 359.046 749.401C360.759 745.022 362.38 740.314 363.406 736.01C364.442 731.668 364.834 727.886 364.223 725.284C361.658 714.359 351.583 707.55 341.863 709.833C332.142 712.115 326.15 722.695 328.715 733.62C329.337 736.271 331.142 739.57 333.596 743.09C336.034 746.586 339.048 750.209 341.994 753.495C344.937 756.778 347.799 759.709 349.926 761.821C350.979 762.866 351.851 763.709 352.463 764.294Z" fill="#5DAA43" stroke="#C1E445" stroke-width="2"/>
<path d="M308.185 721.474C308.198 721.448 308.211 721.422 308.224 721.395C308.63 720.571 309.207 719.379 309.891 717.914C311.26 714.981 313.056 710.957 314.768 706.582C316.482 702.203 318.103 697.494 319.129 693.191C320.164 688.849 320.556 685.066 319.946 682.464C317.381 671.54 307.306 664.731 297.586 667.013C287.865 669.295 281.873 679.876 284.438 690.8C285.06 693.451 286.865 696.751 289.319 700.27C291.757 703.766 294.771 707.39 297.717 710.675C300.66 713.958 303.522 716.89 305.649 719.001C306.702 720.046 307.574 720.889 308.185 721.474Z" fill="#5DAA43" stroke="#C1E445" stroke-width="2"/>
<path d="M403.229 752.287C403.258 752.293 403.287 752.298 403.316 752.304C404.217 752.483 405.517 752.731 407.11 753.013C410.297 753.577 414.649 754.27 419.318 754.791C423.992 755.313 428.959 755.66 433.381 755.537C437.843 755.414 441.599 754.814 443.954 753.55C453.842 748.245 457.811 736.751 453.091 727.953C448.371 719.154 436.6 716.105 426.712 721.41C424.312 722.697 421.592 725.294 418.828 728.576C416.082 731.836 413.362 735.685 410.951 739.38C408.541 743.073 406.451 746.596 404.962 749.197C404.225 750.485 403.636 751.545 403.229 752.287Z" fill="#5DAA43" stroke="#C1E445" stroke-width="2"/>
<path d="M383.871 809.082C383.899 809.087 383.928 809.093 383.957 809.099C384.858 809.277 386.158 809.526 387.751 809.808C390.938 810.371 395.29 811.064 399.959 811.586C404.633 812.108 409.6 812.455 414.022 812.332C418.485 812.208 422.24 811.608 424.595 810.345C434.484 805.04 438.453 793.546 433.732 784.747C429.012 775.949 417.241 772.899 407.353 778.204C404.953 779.491 402.233 782.089 399.469 785.37C396.723 788.63 394.003 792.479 391.592 796.175C389.183 799.867 387.092 803.391 385.603 805.992C384.866 807.279 384.277 808.34 383.871 809.082Z" fill="#5DAA43" stroke="#C1E445" stroke-width="2"/>
<path d="M288.203 872.662C321.615 871.908 354.232 831.629 361.784 806.594C369.337 781.559 385.636 737.978 392.842 719.317" stroke="#C1E445" stroke-width="4"/>
<path d="M347.146 734.559C350.606 751.979 355.167 773.787 356.289 779.43C358.106 788.563 364.569 808.419 350.259 829.627" stroke="#C1E445" stroke-width="4"/>
<path d="M369.949 781.656C380.528 761.203 413.392 748.733 431.523 739.412" stroke="#C1E445" stroke-width="4"/>
<path d="M303.438 695.88C309.454 761.25 363.711 776.864 357.519 815.24" stroke="#C1E445" stroke-width="4"/>
<path d="M354.49 821.912L412.971 795.976" stroke="#C1E445" stroke-width="4"/>
</g>
<g filter="url(#filter3_d)">
<ellipse cx="777.891" cy="193.449" rx="66.5" ry="80" transform="rotate(-15 777.891 193.449)" fill="#FFAF66"/>
<path fill-rule="evenodd" clip-rule="evenodd" d="M832.34 335.077C819.971 297.73 841.445 253.826 845.869 214.734C847.12 203.675 846.322 191.903 843.16 180.101C831.725 137.424 793.696 110.533 758.221 120.038C722.745 129.544 703.257 171.847 714.692 214.524C717.941 226.65 723.338 237.502 730.212 246.607C753.292 277.172 792.132 303.514 800.221 340.95L837.204 512.11C840.293 526.406 854.715 535.211 868.843 531.425C883.059 527.616 891.141 512.63 886.514 498.659L832.34 335.077Z" fill="#AD5433"/>
<path d="M836.901 510.707C837.002 511.174 837.103 511.641 837.204 512.11C840.293 526.406 854.715 535.211 868.843 531.425C883.059 527.616 891.141 512.63 886.514 498.659C886.396 498.303 886.278 497.948 886.161 497.593C888.352 510.392 880.493 523.127 867.549 526.595C854.588 530.068 841.38 522.945 836.901 510.707Z" fill="#6A2004"/>
<ellipse cx="778.926" cy="197.313" rx="58.5" ry="70" transform="rotate(-15 778.926 197.313)" fill="#822E0F"/>
<path d="M831.5 170.802C835.432 203.853 818.737 234.268 790.832 241.745C762.927 249.222 733.261 231.23 720.141 200.641C720.606 204.553 721.36 208.501 722.419 212.453C732.425 249.796 765.836 273.289 797.043 264.927C828.251 256.565 845.439 219.514 835.433 182.172C834.374 178.22 833.053 174.423 831.5 170.802Z" fill="#6A2004"/>
</g>
<g filter="url(#filter4_d)">
<ellipse cx="425.028" cy="71.989" rx="3" ry="8" transform="rotate(-16.6713 425.028 71.989)" fill="#FEF0B2"/>
<ellipse cx="425.029" cy="71.989" rx="1" ry="6" transform="rotate(-16.6713 425.029 71.989)" fill="#FEC997"/>
<ellipse cx="437.137" cy="73.2236" rx="3" ry="8" transform="rotate(32.2846 437.137 73.2236)" fill="#FEF0B2"/>
<ellipse cx="437.137" cy="73.2236" rx="1" ry="6" transform="rotate(32.2846 437.137 73.2236)" fill="#FEC997"/>
<ellipse cx="423.151" cy="91.8793" rx="3" ry="8" transform="rotate(32.2846 423.151 91.8793)" fill="#FEF0B2"/>
<ellipse cx="423.151" cy="91.8793" rx="1" ry="6" transform="rotate(32.2846 423.151 91.8793)" fill="#FEC997"/>
<ellipse cx="457.45" cy="107.924" rx="3" ry="8" transform="rotate(-46.6713 457.45 107.924)" fill="#FEF0B2"/>
<ellipse cx="457.45" cy="107.923" rx="1" ry="6" transform="rotate(-46.6713 457.45 107.923)" fill="#FEC997"/>
<ellipse cx="459.643" cy="93.5191" rx="3" ry="8" transform="rotate(-10.0811 459.643 93.5191)" fill="#FEF0B2"/>
<ellipse cx="459.643" cy="93.5191" rx="1" ry="6" transform="rotate(-10.0811 459.643 93.5191)" fill="#FEC997"/>
<ellipse cx="470.344" cy="93.0794" rx="3" ry="8" transform="rotate(8.33952 470.344 93.0794)" fill="#FEF0B2"/>
<ellipse cx="470.344" cy="93.0794" rx="1" ry="6" transform="rotate(8.33952 470.344 93.0794)" fill="#FEC997"/>
<ellipse cx="476.655" cy="93.605" rx="3" ry="8" transform="rotate(8.33952 476.655 93.605)" fill="#FEF0B2"/>
<ellipse cx="476.655" cy="93.605" rx="1" ry="6" transform="rotate(8.33952 476.655 93.605)" fill="#FEC997"/>
<ellipse cx="483.322" cy="76.0484" rx="3" ry="8" transform="rotate(-16.6713 483.322 76.0484)" fill="#FEF0B2"/>
<ellipse cx="483.322" cy="76.0484" rx="1" ry="6" transform="rotate(-16.6713 483.322 76.0484)" fill="#FEC997"/>
<ellipse cx="504.566" cy="75.2774" rx="3" ry="8" transform="rotate(-31.1879 504.566 75.2774)" fill="#FEF0B2"/>
<ellipse cx="504.566" cy="75.2773" rx="1" ry="6" transform="rotate(-31.1879 504.566 75.2773)" fill="#FEC997"/>
<ellipse cx="417.542" cy="118.698" rx="3" ry="8" transform="rotate(-76.6713 417.542 118.698)" fill="#FEF0B2"/>
<ellipse cx="417.542" cy="118.698" rx="1" ry="6" transform="rotate(-76.6713 417.542 118.698)" fill="#FEC997"/>
<ellipse cx="429.372" cy="118.181" rx="3" ry="8" transform="rotate(-31.1879 429.372 118.181)" fill="#FEF0B2"/>
<ellipse cx="429.372" cy="118.181" rx="1" ry="6" transform="rotate(-31.1879 429.372 118.181)" fill="#FEC997"/>
<ellipse cx="408.144" cy="127.152" rx="3" ry="8" transform="rotate(-16.6713 408.144 127.152)" fill="#FEF0B2"/>
<ellipse cx="408.144" cy="127.152" rx="1" ry="6" transform="rotate(-16.6713 408.144 127.152)" fill="#FEC997"/>
<ellipse cx="376.901" cy="108.19" rx="3" ry="8" transform="rotate(12.6291 376.901 108.19)" fill="#FEF0B2"/>
<ellipse cx="376.901" cy="108.19" rx="1" ry="6" transform="rotate(12.6291 376.901 108.19)" fill="#FEC997"/>
<ellipse cx="359.269" cy="105.308" rx="3" ry="8" transform="rotate(-56.7487 359.269 105.308)" fill="#FEF0B2"/>
<ellipse cx="359.269" cy="105.308" rx="1" ry="6" transform="rotate(-56.7487 359.269 105.308)" fill="#FEC997"/>
<ellipse cx="473.496" cy="13.8852" rx="3" ry="8" transform="rotate(-33.9189 473.496 13.8852)" fill="#FEF0B2"/>
<ellipse cx="473.496" cy="13.8852" rx="1" ry="6" transform="rotate(-33.9189 473.496 13.8852)" fill="#FEC997"/>
<ellipse cx="478.793" cy="25.9649" rx="3" ry="8" transform="rotate(46.034 478.793 25.9649)" fill="#FEF0B2"/>
<ellipse cx="478.793" cy="25.965" rx="1" ry="6" transform="rotate(46.034 478.793 25.965)" fill="#FEC997"/>
<ellipse cx="352.495" cy="141.034" rx="3" ry="8" transform="rotate(46.034 352.495 141.034)" fill="#FEF0B2"/>
<ellipse cx="352.495" cy="141.034" rx="1" ry="6" transform="rotate(46.034 352.495 141.034)" fill="#FEC997"/>
<ellipse cx="298.386" cy="153.834" rx="3" ry="8" transform="rotate(-18.1186 298.386 153.834)" fill="#FEF0B2"/>
<ellipse cx="298.386" cy="153.834" rx="1" ry="6" transform="rotate(-18.1186 298.386 153.834)" fill="#FEC997"/>
<ellipse cx="275.579" cy="175.278" rx="3" ry="8" transform="rotate(-18.1186 275.579 175.278)" fill="#FEF0B2"/>
<ellipse cx="275.579" cy="175.278" rx="1" ry="6" transform="rotate(-18.1186 275.579 175.278)" fill="#FEC997"/>
</g>
<g filter="url(#filter5_d)">
<path d="M50.0653 175.897C77.7153 197.916 117.98 193.351 139.999 165.701L39.8694 85.9633C17.8504 113.613 22.4153 153.878 50.0653 175.897Z" fill="#5DAA43"/>
<path d="M131.587 162.837C112.068 184.846 78.5095 187.958 55.226 169.416C31.9424 150.874 27.4626 117.471 44.5431 93.5203L131.587 162.837Z" fill="#D7FE69" stroke="white" stroke-width="6"/>
<mask id="mask22" mask-type="alpha" maskUnits="userSpaceOnUse" x="7" y="89" width="129" height="120">
<path d="M53.3571 171.763C78.7241 191.964 115.664 187.776 135.865 162.409L44.0031 89.2552C23.8022 114.622 27.9902 151.562 53.3571 171.763Z" fill="#D7FE69"/>
</mask>
<g mask="url(#mask22)">
<path d="M79.2738 197.656L90.0755 125.654" stroke="white" stroke-width="6"/>
<path d="M22.3193 152.3L90.0754 125.654" stroke="white" stroke-width="6"/>
</g>
</g>
<g filter="url(#filter6_d)">
<ellipse cx="712.725" cy="662.513" rx="3" ry="8" transform="rotate(11.2124 712.725 662.513)" fill="#FEF0B2"/>
<ellipse cx="712.725" cy="662.513" rx="1" ry="6" transform="rotate(11.2124 712.725 662.513)" fill="#FEC997"/>
<ellipse cx="722.851" cy="669.267" rx="3" ry="8" transform="rotate(60.1684 722.851 669.267)" fill="#FEF0B2"/>
<ellipse cx="722.851" cy="669.267" rx="1" ry="6" transform="rotate(60.1684 722.851 669.267)" fill="#FEC997"/>
<ellipse cx="701.763" cy="679.216" rx="3" ry="8" transform="rotate(60.1684 701.763 679.216)" fill="#FEF0B2"/>
<ellipse cx="701.763" cy="679.216" rx="1" ry="6" transform="rotate(60.1684 701.763 679.216)" fill="#FEC997"/>
<ellipse cx="724.576" cy="709.438" rx="3" ry="8" transform="rotate(-18.7876 724.576 709.438)" fill="#FEF0B2"/>
<ellipse cx="724.576" cy="709.438" rx="1" ry="6" transform="rotate(-18.7876 724.576 709.438)" fill="#FEC997"/>
<ellipse cx="733.252" cy="697.732" rx="3" ry="8" transform="rotate(17.8026 733.252 697.732)" fill="#FEF0B2"/>
<ellipse cx="733.252" cy="697.732" rx="1" ry="6" transform="rotate(17.8026 733.252 697.732)" fill="#FEC997"/>
<ellipse cx="742.916" cy="702.348" rx="3" ry="8" transform="rotate(36.2233 742.916 702.348)" fill="#FEF0B2"/>
<ellipse cx="742.916" cy="702.348" rx="1" ry="6" transform="rotate(36.2233 742.916 702.348)" fill="#FEC997"/>
<ellipse cx="748.248" cy="705.764" rx="3" ry="8" transform="rotate(36.2233 748.248 705.764)" fill="#FEF0B2"/>
<ellipse cx="748.248" cy="705.764" rx="1" ry="6" transform="rotate(36.2233 748.248 705.764)" fill="#FEC997"/>
<ellipse cx="762.352" cy="693.364" rx="3" ry="8" transform="rotate(11.2124 762.352 693.364)" fill="#FEF0B2"/>
<ellipse cx="762.352" cy="693.364" rx="1" ry="6" transform="rotate(11.2124 762.352 693.364)" fill="#FEC997"/>
<ellipse cx="781.49" cy="702.617" rx="3" ry="8" transform="rotate(-3.30418 781.49 702.617)" fill="#FEF0B2"/>
<ellipse cx="781.49" cy="702.617" rx="1" ry="6" transform="rotate(-3.30418 781.49 702.617)" fill="#FEC997"/>
<ellipse cx="684.263" cy="700.298" rx="3" ry="8" transform="rotate(-48.7876 684.263 700.298)" fill="#FEF0B2"/>
<ellipse cx="684.263" cy="700.298" rx="1" ry="6" transform="rotate(-48.7876 684.263 700.298)" fill="#FEC997"/>
<ellipse cx="694.961" cy="705.373" rx="3" ry="8" transform="rotate(-3.30418 694.961 705.373)" fill="#FEF0B2"/>
<ellipse cx="694.961" cy="705.373" rx="1" ry="6" transform="rotate(-3.30418 694.961 705.373)" fill="#FEC997"/>
<ellipse cx="672.002" cy="703.374" rx="3" ry="8" transform="rotate(11.2124 672.002 703.374)" fill="#FEF0B2"/>
<ellipse cx="672.002" cy="703.374" rx="1" ry="6" transform="rotate(11.2124 672.002 703.374)" fill="#FEC997"/>
<ellipse cx="653.255" cy="672.003" rx="3" ry="8" transform="rotate(40.5129 653.255 672.003)" fill="#FEF0B2"/>
<ellipse cx="653.255" cy="672.003" rx="1" ry="6" transform="rotate(40.5129 653.255 672.003)" fill="#FEC997"/>
<ellipse cx="639.018" cy="661.209" rx="3" ry="8" transform="rotate(-28.865 639.018 661.209)" fill="#FEF0B2"/>
<ellipse cx="639.018" cy="661.209" rx="1" ry="6" transform="rotate(-28.865 639.018 661.209)" fill="#FEC997"/>
<ellipse cx="782.739" cy="633.822" rx="3" ry="8" transform="rotate(-6.0351 782.739 633.822)" fill="#FEF0B2"/>
<ellipse cx="782.739" cy="633.822" rx="1" ry="6" transform="rotate(-6.0351 782.739 633.822)" fill="#FEC997"/>
<ellipse cx="781.772" cy="646.977" rx="3" ry="8" transform="rotate(73.9177 781.772 646.977)" fill="#FEF0B2"/>
<ellipse cx="781.772" cy="646.977" rx="1" ry="6" transform="rotate(73.9177 781.772 646.977)" fill="#FEC997"/>
<ellipse cx="616.322" cy="689.62" rx="3" ry="8" transform="rotate(73.9177 616.322 689.62)" fill="#FEF0B2"/>
<ellipse cx="616.322" cy="689.62" rx="1" ry="6" transform="rotate(73.9177 616.322 689.62)" fill="#FEC997"/>
<ellipse cx="562.509" cy="675.627" rx="3" ry="8" transform="rotate(9.76519 562.509 675.627)" fill="#FEF0B2"/>
<ellipse cx="562.509" cy="675.627" rx="1" ry="6" transform="rotate(9.76519 562.509 675.627)" fill="#FEC997"/>
<ellipse cx="532.321" cy="683.916" rx="3" ry="8" transform="rotate(9.76519 532.321 683.916)" fill="#FEF0B2"/>
<ellipse cx="532.321" cy="683.916" rx="1" ry="6" transform="rotate(9.76519 532.321 683.916)" fill="#FEC997"/>
</g>
<g filter="url(#filter7_d)">
<circle cx="471.451" cy="372.463" r="244.5" fill="#FEF0B2" stroke="#FF966A" stroke-width="8"/>
<circle cx="472" cy="372.963" r="201" fill="#BA653C" stroke="#FFAF82" stroke-width="4"/>
<mask id="mask23" mask-type="alpha" maskUnits="userSpaceOnUse" x="269" y="169" width="406" height="407">
<circle cx="472" cy="372.963" r="203" fill="black"/>
</mask>
<g mask="url(#mask23)">
<g filter="url(#filter8_d)">
<path d="M327.897 154.646V321.708C327.897 334.962 338.643 345.708 351.897 345.708H598.625C611.88 345.708 622.625 356.453 622.625 369.708V409.862C622.625 423.117 611.88 433.862 598.625 433.862H405.457" stroke="#FF9548" stroke-width="8"/>
</g>
<g filter="url(#filter9_d)">
<path d="M343.41 67.2151V313.122C343.41 321.958 350.573 329.122 359.41 329.122H623.374C632.211 329.122 639.374 336.285 639.374 345.122V433.963C639.374 442.8 632.211 449.963 623.374 449.963H421.295" stroke="#FF9548" stroke-width="8"/>
</g>
<g filter="url(#filter10_d)">
<path d="M232.005 372.463L417.839 372.463C431.093 372.463 441.839 383.209 441.839 396.463L441.839 470.5C441.839 483.754 452.584 494.5 465.839 494.5L528.143 494.499" stroke="#FF9548" stroke-width="8"/>
</g>
<g filter="url(#filter11_d)">
<path d="M214.005 390.463L407.839 390.463C416.675 390.463 423.839 397.627 423.839 406.463L423.839 496.5C423.839 505.336 431.002 512.5 439.839 512.5L510.143 512.499" stroke="#FF9548" stroke-width="8"/>
</g>
<g filter="url(#filter12_d)">
<path d="M415.639 535.999L406.447 535.999C393.192 535.999 382.447 525.254 382.447 511.999L382.447 437.963C382.447 424.708 371.702 413.963 358.447 413.963L325.747 413.963C312.492 413.963 301.747 424.708 301.747 437.963L301.747 638.76" stroke="#FF9548" stroke-width="8"/>
</g>
<g filter="url(#filter13_d)">
<path d="M671.074 455.553L671.074 464.745C671.074 478 660.328 488.745 647.074 488.745L573.037 488.745C559.783 488.745 549.037 499.491 549.037 512.745L549.037 545.446C549.038 558.7 559.783 569.446 573.037 569.446L773.834 569.446" stroke="#FF9548" stroke-width="8"/>
</g>
<g filter="url(#filter14_d)">
<path d="M558.675 167.696L558.675 176.887C558.675 190.142 547.93 200.887 534.675 200.888L460.639 200.888C447.384 200.888 436.639 211.633 436.639 224.888L436.639 257.588C436.639 270.843 447.384 281.588 460.639 281.588L661.436 281.588" stroke="#FF9548" stroke-width="8"/>
</g>
<g filter="url(#filter15_d)">
<path d="M579.781 194.131L579.781 199.078C579.781 207.914 572.617 215.078 563.781 215.078L470.951 215.078C462.115 215.078 454.951 222.241 454.951 231.078L454.951 250.005C454.951 258.841 462.115 266.005 470.951 266.005L684.894 266.005" stroke="#FF9548" stroke-width="8"/>
</g>
<g filter="url(#filter16_d)">
<path d="M186.897 294.708H457.625C470.88 294.708 481.625 305.453 481.625 318.708V358.862C481.625 372.116 470.88 382.862 457.625 382.862H264.457" stroke="#FFE897" stroke-width="8"/>
</g>
<g filter="url(#filter17_d)">
<path d="M200.981 430.708H339.699C352.954 430.708 363.699 441.453 363.699 454.708V484.412C363.699 497.667 352.954 508.412 339.699 508.412H267.802C254.547 508.412 243.802 519.225 243.802 532.48V532.48C243.802 545.735 254.547 556.547 267.802 556.547H453.404" stroke="#FFE897" stroke-width="8"/>
</g>
<g filter="url(#filter18_d)">
<path d="M450.61 39.2365L450.61 232.404C450.61 245.659 461.355 256.404 474.61 256.404L504.143 256.404C517.397 256.404 528.143 245.659 528.143 232.404L528.143 -14.3235C528.143 -27.5783 538.888 -38.3235 552.143 -38.3235L579.71 -38.3235C593.19 -38.3235 604.026 -27.2238 603.703 -13.7473L596.394 290.573C596.081 303.599 585.431 313.996 572.401 313.996L532.4 313.996C519.146 313.996 508.4 324.742 508.4 337.996L508.4 398.58C508.4 411.835 519.146 422.58 532.4 422.58L597.215 422.58C610.47 422.58 621.215 433.325 621.215 446.58L621.215 511.395C621.215 524.65 610.47 535.395 597.215 535.395L509.838 535.395C496.583 535.395 485.838 524.649 485.838 511.395L485.838 478.987" stroke="#FFE897" stroke-width="8"/>
</g>
</g>
<circle cx="472" cy="372.963" r="200" stroke="#FFAF82" stroke-width="6"/>
<circle cx="472" cy="372.963" r="194" stroke="#FFAF82" stroke-width="2"/>
<g filter="url(#filter19_d)">
<path d="M469.451 477.963C469.451 495.148 464.224 510.609 455.892 521.718C447.561 532.826 436.243 539.463 423.951 539.463C411.66 539.463 400.341 532.826 392.01 521.718C383.678 510.609 378.451 495.148 378.451 477.963C378.451 460.779 383.678 445.317 392.01 434.208C400.341 423.1 411.66 416.463 423.951 416.463C436.243 416.463 447.561 423.1 455.892 434.208C464.224 445.317 469.451 460.779 469.451 477.963Z" fill="#FEFFE1" stroke="#FFE2A8" stroke-width="5"/>
<ellipse cx="423.951" cy="484.463" rx="31" ry="34.5" fill="#FFB547"/>
<mask id="mask24" mask-type="alpha" maskUnits="userSpaceOnUse" x="392" y="449" width="63" height="70">
<ellipse cx="423.951" cy="484.463" rx="31" ry="34.5" fill="#FFB547"/>
</mask>
<g mask="url(#mask24)">
<ellipse cx="423.951" cy="480.463" rx="31" ry="34.5" fill="#FFD747"/>
</g>
<path d="M561.32 392.986C573.472 405.137 580.708 419.766 582.672 433.513C584.636 447.258 581.326 459.955 572.634 468.646C563.943 477.338 551.246 480.648 537.501 478.684C523.754 476.721 509.125 469.484 496.974 457.333C484.823 445.181 477.586 430.552 475.622 416.806C473.658 403.06 476.969 390.364 485.66 381.672C494.351 372.981 507.048 369.67 520.794 371.634C534.54 373.598 549.169 380.835 561.32 392.986Z" fill="#FEFFE1" stroke="#FFE2A8" stroke-width="5"/>
<ellipse cx="533.743" cy="429.756" rx="31" ry="34.5" transform="rotate(-45 533.743 429.756)" fill="#FFB547"/>
<mask id="mask25" mask-type="alpha" maskUnits="userSpaceOnUse" x="500" y="396" width="67" height="67">
<ellipse cx="533.743" cy="429.756" rx="31" ry="34.5" transform="rotate(-45 533.743 429.756)" fill="#FFB547"/>
</mask>
<g mask="url(#mask25)">
<ellipse cx="530.915" cy="426.927" rx="31" ry="34.5" transform="rotate(-45 530.915 426.927)" fill="#FFD747"/>
</g>
</g>
<g filter="url(#filter20_d)">
<mask id="mask26" mask-type="alpha" maskUnits="userSpaceOnUse" x="354" y="242" width="32" height="32">
<path d="M357.154 262.138C354.353 259.862 354.18 255.646 356.785 253.149L365.742 244.564C368.347 242.067 372.552 242.418 374.707 245.313L384.334 258.248C386.141 260.675 385.858 264.068 383.673 266.162L377.604 271.979C375.42 274.073 372.018 274.212 369.669 272.304L357.154 262.138Z" fill="black"/>
</mask>
<g mask="url(#mask26)">
<rect x="347.637" y="257.762" width="31" height="33" transform="rotate(-43.7869 347.637 257.762)" fill="#FFDE33"/>
<path opacity="0.7" d="M347.637 257.762L370.016 236.311L385.24 252.193C373.267 249.818 361.731 260.183 362.86 273.645L347.637 257.762Z" fill="#FFAA2B"/>
</g>
<mask id="mask27" mask-type="alpha" maskUnits="userSpaceOnUse" x="382" y="214" width="25" height="30">
<path d="M382.546 222.377C381.934 218.82 384.578 215.532 388.183 215.366L400.577 214.795C404.182 214.629 407.117 217.661 406.834 221.259L405.572 237.334C405.335 240.35 402.889 242.719 399.866 242.858L391.469 243.244C388.446 243.384 385.793 241.25 385.28 238.268L382.546 222.377Z" fill="black"/>
</mask>
<g mask="url(#mask27)">
<rect x="378.259" y="212.82" width="31" height="33" transform="rotate(-2.63615 378.259 212.82)" fill="#FFDE33"/>
<path opacity="0.7" d="M378.259 212.82L409.226 211.394L410.238 233.371C402.785 223.703 387.279 223.917 379.271 234.797L378.259 212.82Z" fill="#FFAA2B"/>
</g>
<mask id="mask28" mask-type="alpha" maskUnits="userSpaceOnUse" x="360" y="280" width="31" height="27">
<path d="M371.719 306.167C368.376 307.526 364.598 305.648 363.664 302.162L360.453 290.178C359.519 286.692 361.851 283.176 365.426 282.682L381.399 280.472C384.396 280.058 387.233 281.94 388.016 284.863L390.192 292.983C390.975 295.906 389.459 298.955 386.656 300.094L371.719 306.167Z" fill="black"/>
</mask>
<g mask="url(#mask28)">
<rect x="363.302" y="312.401" width="31" height="33" transform="rotate(-105 363.302 312.401)" fill="#FFDE33"/>
<path opacity="0.7" d="M363.302 312.401L355.278 282.458L376.528 276.764C368.681 286.113 372.21 301.214 384.552 306.707L363.302 312.401Z" fill="#FFAA2B"/>
</g>
<mask id="mask29" mask-type="alpha" maskUnits="userSpaceOnUse" x="413" y="188" width="32" height="31">
<path d="M424.577 190.328C426.793 187.48 431.004 187.217 433.556 189.769L442.329 198.542C444.881 201.094 444.619 205.305 441.77 207.521L429.042 217.42C426.653 219.278 423.255 219.067 421.116 216.927L415.171 210.983C413.032 208.843 412.82 205.445 414.678 203.056L424.577 190.328Z" fill="black"/>
</mask>
<g mask="url(#mask29)">
<rect x="428.75" y="180.721" width="31" height="33" transform="rotate(45 428.75 180.721)" fill="#FFDE33"/>
<path opacity="0.7" d="M428.75 180.721L450.67 202.641L435.114 218.197C437.235 206.177 426.629 194.863 413.194 196.277L428.75 180.721Z" fill="#FFAA2B"/>
</g>
<mask id="mask30" mask-type="alpha" maskUnits="userSpaceOnUse" x="400" y="242" width="30" height="32">
<path d="M406.26 246.228C407.417 242.81 411.309 241.179 414.557 242.751L425.725 248.156C428.974 249.728 430.109 253.791 428.146 256.82L419.376 270.351C417.73 272.89 414.451 273.806 411.728 272.488L404.161 268.826C401.437 267.508 400.121 264.368 401.091 261.502L406.26 246.228Z" fill="black"/>
</mask>
<g mask="url(#mask30)">
<rect x="407.046" y="235.783" width="31" height="33" transform="rotate(25.8241 407.046 235.783)" fill="#FFDE33"/>
<path opacity="0.7" d="M407.046 235.783L434.95 249.287L425.367 269.09C423.422 257.039 409.688 249.837 397.462 255.586L407.046 235.783Z" fill="#FFAA2B"/>
</g>
<mask id="mask31" mask-type="alpha" maskUnits="userSpaceOnUse" x="400" y="293" width="29" height="32">
<path d="M405.969 297.401C407.126 293.983 411.018 292.352 414.266 293.924L425.434 299.328C428.683 300.901 429.818 304.964 427.855 307.993L419.085 321.524C417.439 324.063 414.16 324.979 411.437 323.661L403.87 319.999C401.146 318.681 399.83 315.541 400.8 312.675L405.969 297.401Z" fill="black"/>
</mask>
<g mask="url(#mask31)">
<rect x="406.755" y="286.956" width="31" height="33" transform="rotate(25.8241 406.755 286.956)" fill="#FFDE33"/>
<path opacity="0.7" d="M406.755 286.956L434.659 300.46L425.076 320.263C423.131 308.212 409.397 301.01 397.171 306.759L406.755 286.956Z" fill="#FFAA2B"/>
</g>
<mask id="mask32" mask-type="alpha" maskUnits="userSpaceOnUse" x="404" y="340" width="31" height="27">
<path d="M409.597 364.093C406.022 363.599 403.689 360.083 404.623 356.597L407.834 344.613C408.769 341.127 412.547 339.248 415.89 340.608L430.827 346.681C433.63 347.82 435.146 350.869 434.363 353.792L432.187 361.912C431.404 364.835 428.567 366.717 425.569 366.302L409.597 364.093Z" fill="black"/>
</mask>
<g mask="url(#mask32)">
<rect x="399.19" y="365.283" width="31" height="33" transform="rotate(-75 399.19 365.283)" fill="#FFDE33"/>
<path opacity="0.7" d="M399.19 365.283L407.213 335.339L428.464 341.033C416.993 345.207 412.498 360.049 420.44 370.977L399.19 365.283Z" fill="#FFAA2B"/>
</g>
<mask id="mask33" mask-type="alpha" maskUnits="userSpaceOnUse" x="426" y="306" width="30" height="32">
<path d="M427.683 321.939C425.505 319.061 426.341 314.926 429.467 313.121L440.211 306.918C443.337 305.113 447.336 306.456 448.739 309.782L455.007 324.638C456.183 327.426 455.1 330.654 452.479 332.167L445.199 336.37C442.578 337.883 439.241 337.208 437.415 334.795L427.683 321.939Z" fill="black"/>
</mask>
<g mask="url(#mask33)">
<rect x="419.483" y="315.421" width="31" height="33" transform="rotate(-30 419.483 315.421)" fill="#FFDE33"/>
<path opacity="0.7" d="M419.483 315.421L446.329 299.921L457.329 318.974C446.267 313.814 432.594 321.131 430.483 334.474L419.483 315.421Z" fill="#FFAA2B"/>
</g>
<mask id="mask34" mask-type="alpha" maskUnits="userSpaceOnUse" x="427" y="265" width="30" height="32">
<path d="M434.309 269.225C435.712 265.9 439.712 264.557 442.837 266.362L453.582 272.565C456.707 274.369 457.544 278.505 455.366 281.382L445.634 294.239C443.807 296.652 440.47 297.327 437.85 295.814L430.569 291.61C427.949 290.097 426.865 286.87 428.041 284.082L434.309 269.225Z" fill="black"/>
</mask>
<g mask="url(#mask34)">
<rect x="435.853" y="258.865" width="31" height="33" transform="rotate(30 435.853 258.865)" fill="#FFDE33"/>
<path opacity="0.7" d="M435.853 258.865L462.7 274.365L451.7 293.418C450.638 281.258 437.464 273.075 424.853 277.918L435.853 258.865Z" fill="#FFAA2B"/>
</g>
<mask id="mask35" mask-type="alpha" maskUnits="userSpaceOnUse" x="462" y="287" width="30" height="32">
<path d="M469.309 291.225C470.712 287.9 474.712 286.557 477.837 288.362L488.582 294.565C491.707 296.369 492.544 300.505 490.366 303.382L480.634 316.239C478.807 318.652 475.47 319.327 472.85 317.814L465.569 313.61C462.949 312.097 461.865 308.87 463.041 306.082L469.309 291.225Z" fill="black"/>
</mask>
<g mask="url(#mask35)">
<rect x="470.853" y="280.865" width="31" height="33" transform="rotate(30 470.853 280.865)" fill="#FFDE33"/>
<path opacity="0.7" d="M470.853 280.865L497.7 296.365L486.7 315.418C485.638 303.258 472.464 295.075 459.853 299.918L470.853 280.865Z" fill="#FFAA2B"/>
</g>
<mask id="mask36" mask-type="alpha" maskUnits="userSpaceOnUse" x="456" y="325" width="26" height="31">
<path d="M457.79 331.002C458.083 327.405 461.463 324.879 464.996 325.616L477.141 328.149C480.674 328.886 482.761 332.553 481.592 335.967L476.367 351.222C475.386 354.084 472.427 355.769 469.465 355.151L461.236 353.434C458.274 352.816 456.235 350.089 456.481 347.073L457.79 331.002Z" fill="black"/>
</mask>
<g mask="url(#mask36)">
<rect x="456.018" y="320.679" width="31" height="33" transform="rotate(11.7833 456.018 320.679)" fill="#FFDE33"/>
<path opacity="0.7" d="M456.018 320.679L486.365 327.009L481.872 348.545C477.062 337.327 461.991 333.672 451.526 342.215L456.018 320.679Z" fill="#FFAA2B"/>
</g>
<mask id="mask37" mask-type="alpha" maskUnits="userSpaceOnUse" x="480" y="312" width="28" height="32">
<path d="M480.868 325.261C479.319 322.001 480.978 318.122 484.405 316.989L496.185 313.096C499.611 311.964 503.255 314.091 503.954 317.631L507.075 333.451C507.661 336.42 505.945 339.36 503.072 340.309L495.09 342.947C492.216 343.897 489.086 342.558 487.787 339.825L480.868 325.261Z" fill="black"/>
</mask>
<g mask="url(#mask37)">
<rect x="474.161" y="317.215" width="31" height="33" transform="rotate(-18.2874 474.161 317.215)" fill="#FFDE33"/>
<path opacity="0.7" d="M474.161 317.215L503.596 307.487L510.499 328.376C500.715 321.078 485.841 325.467 481.065 338.104L474.161 317.215Z" fill="#FFAA2B"/>
</g>
<mask id="mask38" mask-type="alpha" maskUnits="userSpaceOnUse" x="457" y="255" width="32" height="29">
<path d="M471.32 282.294C468.144 284.007 464.185 282.548 462.879 279.183L458.392 267.617C457.086 264.252 459.025 260.505 462.526 259.626L478.166 255.703C481.101 254.967 484.124 256.532 485.219 259.353L488.26 267.19C489.354 270.011 488.177 273.206 485.514 274.642L471.32 282.294Z" fill="black"/>
</mask>
<g mask="url(#mask38)">
<rect x="463.626" y="289.401" width="31" height="33" transform="rotate(-111.206 463.626 289.401)" fill="#FFDE33"/>
<path opacity="0.7" d="M463.626 289.401L452.413 260.501L472.923 252.543C466.132 262.686 471.273 277.317 484.136 281.444L463.626 289.401Z" fill="#FFAA2B"/>
</g>
<mask id="mask39" mask-type="alpha" maskUnits="userSpaceOnUse" x="379" y="321" width="30" height="25">
<path d="M385.483 345.672C381.877 345.826 378.952 342.785 379.247 339.188L380.258 326.823C380.552 323.226 383.933 320.701 387.465 321.439L403.249 324.737C406.211 325.356 408.249 328.084 408.002 331.099L407.316 339.478C407.07 342.494 404.616 344.854 401.593 344.983L385.483 345.672Z" fill="black"/>
</mask>
<g mask="url(#mask39)">
<rect x="375.458" y="348.708" width="31" height="33" transform="rotate(-85.323 375.458 348.708)" fill="#FFDE33"/>
<path opacity="0.7" d="M375.458 348.708L377.985 317.811L399.912 319.605C389.375 325.766 387.613 341.174 397.385 350.502L375.458 348.708Z" fill="#FFAA2B"/>
</g>
<mask id="mask40" mask-type="alpha" maskUnits="userSpaceOnUse" x="436" y="352" width="28" height="31">
<path d="M439.59 357.199C440.17 353.637 443.741 351.389 447.204 352.407L459.107 355.904C462.57 356.921 464.357 360.743 462.919 364.053L456.49 378.84C455.283 381.615 452.199 383.058 449.296 382.205L441.23 379.835C438.327 378.982 436.513 376.101 436.999 373.114L439.59 357.199Z" fill="black"/>
</mask>
<g mask="url(#mask40)">
<rect x="438.65" y="346.767" width="31" height="33" transform="rotate(16.372 438.65 346.767)" fill="#FFDE33"/>
<path opacity="0.7" d="M438.65 346.767L468.393 355.505L462.192 376.613C458.294 365.045 443.564 360.197 432.449 367.875L438.65 346.767Z" fill="#FFAA2B"/>
</g>
</g>
<path d="M636.675 254.218C634.174 257.218 630.774 262.118 629.174 275.718C627.574 289.318 635.008 311.718 638.675 327.218L607.174 309.218L614.174 239.718L627.674 238.218L639.174 249.218L636.675 254.218Z" fill="#611F12"/>
<path d="M569.787 237.79C569.721 243.233 571.476 245.024 574.053 247.653C576.958 250.617 583.466 249.797 584.466 266.167C585.109 276.708 586.721 290.83 588.995 298.883C592.402 322.07 594.426 332.986 585.78 378.128C612.932 394.504 624.055 395.074 652.659 388.766C653.848 350.218 646.806 335.938 636.835 315.72C633.549 309.057 629.945 301.749 626.213 292.715C621.29 280.798 619.36 275.64 621.283 261.061C626.487 243.056 633.673 243.067 637.657 241.233C640.85 239.763 643.576 238.508 645.106 235.275C649.353 226.304 645.138 221.553 640.169 217.687L639.52 216.684C642.897 209.173 640.247 203.069 630.257 200.033C617.199 196.064 610.089 198.23 602.433 206.223C592.577 205.54 585.573 212.625 585.693 218.214C576.395 222.663 569.934 225.858 569.787 237.79Z" fill="#307B17"/>
<path d="M567.98 236.935C567.913 242.377 569.668 244.168 572.245 246.798C575.15 249.761 581.658 248.942 582.658 265.312C583.302 275.852 584.913 289.974 587.187 298.028C590.594 321.215 592.618 332.13 583.972 377.272C611.125 393.648 622.247 394.218 650.851 387.91C652.04 349.362 644.998 335.082 635.028 314.864C631.742 308.201 628.138 300.893 624.406 291.859C619.483 279.943 617.552 274.785 619.475 260.205C624.679 242.201 631.865 242.212 635.849 240.377C639.043 238.907 641.768 237.653 643.299 234.419C647.545 225.449 643.33 220.697 638.361 216.831L637.712 215.828C641.09 208.317 638.439 202.213 628.449 199.177C615.391 195.208 608.281 197.374 600.625 205.367C590.769 204.685 583.765 211.769 583.886 217.358C574.588 221.808 568.126 225.002 567.98 236.935Z" fill="#5DAA43"/>
<mask id="mask41" mask-type="alpha" maskUnits="userSpaceOnUse" x="514" y="181" width="206" height="225">
<path d="M567.98 236.935C567.913 242.377 569.668 244.168 572.245 246.798C575.15 249.761 581.658 248.942 582.658 265.312C583.302 275.852 584.913 289.974 587.187 298.028C590.594 321.215 592.618 332.13 583.972 377.272C611.125 393.648 622.247 394.218 650.851 387.91C652.04 349.362 644.998 335.082 635.028 314.864C631.742 308.201 628.138 300.893 624.406 291.859C619.483 279.943 617.552 274.785 619.475 260.205C624.679 242.201 631.865 242.212 635.849 240.377C639.043 238.907 641.768 237.653 643.299 234.419C647.545 225.449 643.33 220.697 638.361 216.831L637.712 215.828C641.09 208.317 638.439 202.213 628.449 199.177C615.391 195.208 608.281 197.374 600.625 205.367C590.769 204.685 583.765 211.769 583.886 217.358C574.588 221.808 568.126 225.002 567.98 236.935Z" fill="black"/>
</mask>
<g mask="url(#mask41)">
<path d="M650.108 363.771C642.987 323.89 618.028 312.627 612.324 291.672C603.335 258.65 604.954 230.098 609.996 204.271C603.698 223.418 600.421 266.104 597.627 294.672C595.61 315.292 592.399 311.559 585.582 348.162L577.439 406.265L647.575 412.36L648.902 390.86L650.108 363.771Z" fill="#F2FBBF"/>
<path d="M586.39 344.118L576.102 385.717L664.628 414.9C659.719 387.937 656.209 373.519 646.918 350.644C625.777 355.572 604.015 352.462 586.39 344.118Z" fill="#FCFFEE"/>
<path fill-rule="evenodd" clip-rule="evenodd" d="M627.432 226.165C629.488 222.702 631.647 219.324 635.724 216.71C631.167 221.485 630.338 223.229 628.292 226.676C628.141 226.932 627.989 227.189 627.836 227.447C625.94 230.662 623.937 234.056 620.413 237.087C617.138 239.904 613.492 245.272 610.685 252.246C607.883 259.21 605.934 267.733 606.019 276.829L605.019 276.838C604.933 267.597 606.912 258.944 609.758 251.873C612.6 244.812 616.323 239.286 619.761 236.329C623.155 233.41 625.08 230.15 626.984 226.923C627.134 226.67 627.283 226.418 627.432 226.165Z" fill="#F2FBBF"/>
<path fill-rule="evenodd" clip-rule="evenodd" d="M591.518 240.988C593.528 233.331 590.503 227.399 586.44 220.698C591.563 226.316 594.609 233.153 592.485 241.242C591.748 244.048 591.761 247.974 592.451 252.568C593.138 257.151 594.493 262.357 596.403 267.701C598.083 272.403 599.149 277.502 600.01 282.411C600.31 284.117 600.584 285.797 600.851 287.429C601.354 290.512 601.83 293.427 602.397 296.039L601.42 296.251C600.848 293.615 600.364 290.654 599.857 287.553C599.592 285.926 599.32 284.261 599.025 282.584C598.166 277.689 597.112 272.658 595.461 268.037C593.534 262.645 592.161 257.375 591.462 252.716C590.764 248.068 590.731 243.985 591.518 240.988Z" fill="#F2FBBF"/>
<path fill-rule="evenodd" clip-rule="evenodd" d="M601.969 214.084C601.672 211.988 601.548 210.523 600.629 208.186C602.143 210.855 602.723 212.386 603.035 214.589C603.348 216.795 603.113 218.512 602.799 221.021C602.172 226.038 600.535 231.268 598.802 234.93C598.554 235.454 598.307 235.969 598.065 236.478C594.43 244.09 591.538 250.147 594.013 259.971L593.043 260.215C590.478 250.034 593.516 243.678 597.148 236.077C597.395 235.558 597.646 235.034 597.898 234.502C599.587 230.932 601.194 225.805 601.807 220.897C602.114 218.445 602.266 216.177 601.969 214.084Z" fill="#F2FBBF"/>
<path fill-rule="evenodd" clip-rule="evenodd" d="M580.291 244.023C578.584 241.934 576.514 240.444 574.41 239.966C576.823 239.757 579.68 241.719 581.476 243.916C583.276 246.118 584.245 248.374 584.881 251.235C585.501 254.022 586.428 257.25 587.478 260.906C591.724 275.696 597.983 297.494 594.087 325.469L593.096 325.331C596.96 297.594 590.78 276.054 586.535 261.256C585.476 257.566 584.538 254.295 583.905 251.452C583.304 248.747 581.995 246.107 580.291 244.023Z" fill="#F2FBBF"/>
<path fill-rule="evenodd" clip-rule="evenodd" d="M624.704 208.59C625.309 206.732 625.619 205.191 625.597 204.159C625.623 205.363 625.286 208.778 624.671 210.665C624.053 212.565 623.225 215.006 622.128 217.206C619.938 221.597 617.842 224.147 614.623 227.135C612.285 229.305 610.047 231.755 608.377 235.969C606.701 240.198 605.583 246.237 605.562 255.597L604.562 255.594C604.584 246.166 605.708 239.989 607.447 235.601C609.193 231.197 611.544 228.628 613.942 226.402C617.039 223.528 619.062 221.114 621.224 216.778C622.936 213.163 624.103 210.435 624.704 208.59Z" fill="#F2FBBF"/>
<path fill-rule="evenodd" clip-rule="evenodd" d="M634.127 233.059C635.87 230.233 636.67 228.956 637.755 223.785C637.941 227.039 636.8 230.63 634.978 233.584C633.161 236.529 630.607 238.935 627.883 239.708C626.377 240.136 625.106 240.138 623.961 240.085C623.756 240.075 623.558 240.064 623.365 240.053C622.458 240.003 621.656 239.959 620.813 240.099C618.844 240.426 616.319 241.21 612.959 247.264L612.09 246.795C615.786 240.531 618.258 239.51 620.649 239.112C621.611 238.953 622.543 239.005 623.454 239.056C623.639 239.067 623.823 239.077 624.007 239.086C625.109 239.137 626.255 239.131 627.61 238.746C629.998 238.068 632.378 235.894 634.127 233.059Z" fill="#F2FBBF"/>
<path fill-rule="evenodd" clip-rule="evenodd" d="M586.236 233.555C585.072 231.043 582.983 229.129 579.327 228.458C583.689 228.007 586.203 231.351 587.502 234.154C588.784 236.922 588.661 239.294 588.506 242.566C588.388 245.042 587.846 247.261 587.341 249.328C587.172 250.018 587.008 250.69 586.865 251.35C586.288 254.01 586.029 256.535 587.054 259.403L586.113 259.74C584.996 256.615 585.295 253.872 585.888 251.138C586.041 250.43 586.213 249.728 586.386 249.02C586.885 246.975 587.395 244.89 587.507 242.519C587.659 239.299 587.417 236.102 586.236 233.555Z" fill="#F2FBBF"/>
<path d="M600.616 205.374C600.616 205.374 591.135 204.777 587.743 211.944C586.673 214.203 586.179 216.972 586.893 218.97C585.061 216.996 583.078 217.164 582.316 217.168L586.83 198.284L600.616 205.374Z" fill="#63D93C"/>
<path d="M582.554 217.834C578.884 220.522 567.549 227.327 571.619 239.764C574.698 249.173 578.85 243.187 582.016 255.196C584.081 263.028 583.916 277.671 583.401 277.98L562.773 244.428L567.881 221.952L582.554 217.834Z" fill="#63D93C"/>
</g>
<path d="M580.5 276.963C587.5 273.963 595.5 274.463 598.5 284.963C601.5 295.463 597.5 305.963 600 319.963C601.758 329.807 612.825 338.789 619 344.963C636 361.963 643.5 369.963 649 393.963L592 361.963L570 305.463L580.5 276.963Z" fill="#2E5521"/>
<path d="M579.5 270.463C588.5 288.463 591.5 324.963 590.5 350.463L562 306.463L579.5 270.463Z" fill="#611F12"/>
<path d="M521.126 310.265C523.394 315.213 525.747 316.08 529.202 317.354C533.095 318.79 538.626 315.265 546.534 329.633C551.626 338.884 559.125 350.958 564.626 357.265C577.626 376.765 584.126 385.765 595.626 430.265C627.175 433.448 637.472 429.205 660.626 411.265C645.208 375.915 632.733 366.021 615.07 352.013C609.249 347.397 602.865 342.333 595.626 335.765C586.078 327.101 582.126 323.265 577.626 309.265C574.626 290.765 581.126 287.7 583.943 284.337C586.2 281.642 588.126 279.342 588.126 275.765C588.126 265.84 582.284 263.349 576.138 261.981L575.122 261.351C574.961 253.118 569.954 248.735 559.625 250.265C546.125 252.265 540.626 257.265 537.126 267.765C527.926 271.365 524.626 280.765 527.126 285.765C520.626 293.765 516.153 299.417 521.126 310.265Z" fill="#307B17"/>
<path d="M519.126 310.265C521.394 315.213 523.747 316.08 527.202 317.354C531.095 318.79 536.626 315.265 544.534 329.633C549.626 338.884 557.125 350.958 562.626 357.265C575.626 376.765 582.126 385.765 593.626 430.265C625.175 433.448 635.472 429.205 658.626 411.265C643.208 375.915 630.733 366.021 613.07 352.013C607.249 347.397 600.865 342.333 593.626 335.765C584.078 327.101 580.126 323.265 575.626 309.265C572.626 290.765 579.126 287.7 581.943 284.337C584.2 281.642 586.126 279.342 586.126 275.765C586.126 265.84 580.284 263.349 574.138 261.981L573.122 261.351C572.961 253.118 567.954 248.735 557.625 250.265C544.125 252.265 538.626 257.265 535.126 267.765C525.926 271.365 522.626 280.765 525.126 285.765C518.626 293.765 514.153 299.417 519.126 310.265Z" fill="#5DAA43"/>
<mask id="mask42" mask-type="alpha" maskUnits="userSpaceOnUse" x="517" y="249" width="142" height="183">
<path d="M519.126 310.265C521.394 315.213 523.747 316.08 527.202 317.354C531.095 318.79 536.626 315.265 544.534 329.633C549.626 338.884 557.125 350.958 562.626 357.265C575.626 376.765 582.126 385.765 593.626 430.265C625.175 433.448 635.472 429.205 658.626 411.265C643.208 375.915 630.733 366.021 613.07 352.013C607.249 347.397 600.865 342.333 593.626 335.765C584.078 327.101 580.126 323.265 575.626 309.265C572.626 290.765 579.126 287.7 581.943 284.337C584.2 281.642 586.126 279.342 586.126 275.765C586.126 265.84 580.284 263.349 574.138 261.981L573.122 261.351C572.961 253.118 567.954 248.735 557.625 250.265C544.125 252.265 538.626 257.265 535.126 267.765C525.926 271.365 522.626 280.765 525.126 285.765C518.626 293.765 514.153 299.417 519.126 310.265Z" fill="black"/>
</mask>
<g mask="url(#mask42)">
<path d="M647.626 389.765C624.126 356.765 596.749 357.265 582.626 340.765C560.373 314.765 549.62 288.265 543.126 262.765C545.626 282.765 560.928 322.749 570.626 349.765C577.626 369.265 573.126 367.265 582.626 403.265L600.126 459.265L666.126 434.765L658.126 414.765L647.626 389.765Z" fill="#F2FBBF"/>
<path d="M581.626 399.265L590.126 441.265L682.626 429.765C666.652 407.495 657.312 395.965 639.126 379.265C622.126 392.765 601.126 399.265 581.626 399.265Z" fill="#FCFFEE"/>
<path fill-rule="evenodd" clip-rule="evenodd" d="M568.254 275.093C568.63 271.084 569.136 267.106 571.703 263C569.626 269.265 569.624 271.196 569.25 275.187C569.222 275.483 569.195 275.78 569.168 276.079C568.829 279.796 568.471 283.721 566.583 287.968C564.828 291.915 563.83 298.328 564.277 305.832C564.723 313.325 566.608 321.862 570.577 330.047L569.677 330.483C565.645 322.168 563.732 313.5 563.279 305.891C562.826 298.293 563.827 291.705 565.669 287.562C567.488 283.471 567.832 279.701 568.173 275.97C568.2 275.677 568.227 275.385 568.254 275.093Z" fill="#F2FBBF"/>
<path fill-rule="evenodd" clip-rule="evenodd" d="M542.135 303.857C540.676 296.076 535.403 292.009 528.864 287.691C535.898 290.577 541.577 295.453 543.118 303.673C543.652 306.524 545.344 310.067 547.933 313.924C550.515 317.773 553.967 321.899 557.98 325.911C561.511 329.442 564.655 333.595 567.534 337.664C568.535 339.077 569.502 340.478 570.441 341.839C572.215 344.41 573.893 346.841 575.523 348.96L574.73 349.57C573.085 347.432 571.381 344.962 569.596 342.376C568.66 341.02 567.702 339.631 566.718 338.241C563.847 334.185 560.742 330.088 557.273 326.618C553.223 322.569 549.728 318.393 547.102 314.482C544.483 310.579 542.706 306.903 542.135 303.857Z" fill="#F2FBBF"/>
<path fill-rule="evenodd" clip-rule="evenodd" d="M540.071 275.068C538.905 273.301 538.166 272.03 536.335 270.311C538.846 272.076 540.025 273.211 541.25 275.068C542.477 276.929 542.999 278.581 543.789 280.984C545.369 285.786 546.126 291.214 546.126 295.265C546.126 295.845 546.124 296.416 546.123 296.979C546.095 305.414 546.072 312.127 552.512 319.947L551.74 320.583C545.066 312.478 545.092 305.433 545.122 297.009C545.124 296.434 545.126 295.853 545.126 295.265C545.126 291.316 544.384 285.994 542.839 281.296C542.067 278.948 541.234 276.833 540.071 275.068Z" fill="#F2FBBF"/>
<path fill-rule="evenodd" clip-rule="evenodd" d="M533.287 311.404C530.85 310.246 528.341 309.785 526.235 310.253C528.326 309.032 531.749 309.583 534.312 310.801C536.88 312.021 538.722 313.645 540.521 315.958C542.274 318.212 544.493 320.733 547.006 323.588C557.172 335.139 572.156 352.164 580.603 379.115L579.649 379.414C571.273 352.691 556.472 335.867 546.303 324.308C543.767 321.426 541.52 318.871 539.732 316.572C538.031 314.385 535.718 312.559 533.287 311.404Z" fill="#F2FBBF"/>
<path fill-rule="evenodd" clip-rule="evenodd" d="M558.268 260.375C558.02 258.438 557.641 256.912 557.179 255.988C557.718 257.065 558.874 260.296 559.126 262.265C559.38 264.246 559.677 266.807 559.626 269.265C559.526 274.171 558.722 277.373 557.091 281.451C555.906 284.412 554.933 287.584 555.226 292.107C555.52 296.647 557.094 302.583 561.079 311.052L560.175 311.478C556.16 302.947 554.534 296.883 554.228 292.172C553.921 287.445 554.947 284.117 556.163 281.079C557.732 277.157 558.527 274.109 558.626 269.265C558.626 265.265 558.514 262.3 558.268 260.375Z" fill="#F2FBBF"/>
<path fill-rule="evenodd" clip-rule="evenodd" d="M577.254 278.46C577.621 275.159 577.797 273.663 576.565 268.525C578.126 271.387 578.632 275.12 578.248 278.57C577.866 282.01 576.587 285.276 574.456 287.141C573.277 288.172 572.13 288.718 571.072 289.159C570.883 289.238 570.699 289.313 570.52 289.386C569.679 289.729 568.935 290.032 568.233 290.519C566.593 291.658 564.646 293.447 564.2 300.356L563.214 300.304C563.875 293.061 565.672 291.08 567.663 289.698C568.464 289.141 569.329 288.79 570.174 288.447C570.346 288.377 570.517 288.308 570.686 288.237C571.704 287.811 572.738 287.316 573.797 286.389C575.666 284.753 576.887 281.77 577.254 278.46Z" fill="#F2FBBF"/>
<path fill-rule="evenodd" clip-rule="evenodd" d="M534.181 299.399C532.054 297.626 529.346 296.79 525.755 297.748C529.505 295.474 533.208 297.421 535.581 299.399C537.925 301.352 538.828 303.548 540.088 306.572C541.041 308.86 541.5 311.098 541.928 313.182C542.071 313.878 542.21 314.556 542.363 315.214C542.98 317.865 543.827 320.258 545.98 322.411L545.273 323.118C542.926 320.772 542.023 318.165 541.389 315.44C541.225 314.735 541.08 314.026 540.933 313.313C540.51 311.251 540.078 309.148 539.165 306.957C537.925 303.981 536.338 301.196 534.181 299.399Z" fill="#F2FBBF"/>
<path d="M535.12 267.775C535.12 267.775 526.296 271.292 526.296 279.221C526.296 281.721 527.034 284.435 528.534 285.935C526.034 284.935 524.314 285.935 523.626 286.265L519.626 267.265L535.12 267.775Z" fill="#63D93C"/>
<path d="M524.126 286.765C521.96 290.765 514.626 301.765 523.626 311.265C530.435 318.451 531.626 311.265 539.626 320.765C544.843 326.96 550.96 340.265 550.626 340.765L517.626 319.265L512.626 296.765L524.126 286.765Z" fill="#63D93C"/>
</g>
<path d="M309.474 426.209C309.451 426.227 309.429 426.246 309.406 426.265C308.696 426.848 307.668 427.682 306.398 428.683C303.856 430.686 300.348 433.354 296.48 436.021C292.609 438.69 288.396 441.344 284.44 443.327C280.45 445.327 276.857 446.574 274.184 446.574C262.963 446.574 254.032 438.321 254.032 428.337C254.032 418.352 262.963 410.1 274.184 410.1C276.907 410.1 280.532 411.103 284.519 412.688C288.48 414.262 292.696 416.369 296.568 418.485C300.437 420.6 303.945 422.716 306.487 424.305C307.745 425.091 308.765 425.747 309.474 426.209Z" fill="#5DAA43" stroke="#C1E445" stroke-width="2"/>
<path d="M335.928 402.942C335.9 402.947 335.871 402.951 335.841 402.956C334.935 403.106 333.628 403.315 332.027 403.546C328.825 404.01 324.452 404.567 319.769 404.943C315.082 405.319 310.106 405.51 305.69 405.25C301.234 404.987 297.499 404.27 295.184 402.934C285.466 397.323 281.858 385.711 286.85 377.064C291.842 368.417 303.703 365.736 313.421 371.347C315.779 372.708 318.417 375.389 321.077 378.755C323.72 382.099 326.319 386.031 328.614 389.8C330.906 393.566 332.886 397.153 334.293 399.799C334.99 401.109 335.545 402.188 335.928 402.942Z" fill="#5DAA43" stroke="#C1E445" stroke-width="2"/>
<path d="M307.722 348.184C307.694 348.189 307.665 348.194 307.635 348.198C306.729 348.349 305.422 348.557 303.821 348.789C300.618 349.252 296.246 349.81 291.563 350.185C286.876 350.561 281.9 350.753 277.484 350.492C273.028 350.229 269.293 349.512 266.978 348.176C257.26 342.565 253.652 330.953 258.644 322.306C263.636 313.659 275.497 310.978 285.215 316.589C287.573 317.95 290.211 320.631 292.871 323.997C295.514 327.341 298.113 331.273 300.407 335.042C302.7 338.808 304.68 342.395 306.087 345.042C306.784 346.351 307.339 347.43 307.722 348.184Z" fill="#5DAA43" stroke="#C1E445" stroke-width="2"/>
<path d="M309.771 448.077C309.768 448.106 309.765 448.135 309.762 448.165C309.673 449.079 309.535 450.395 309.345 452.002C308.964 455.215 308.371 459.583 307.521 464.203C306.671 468.828 305.569 473.684 304.174 477.883C302.767 482.119 301.108 485.541 299.218 487.431C291.283 495.365 279.132 495.846 272.072 488.785C265.012 481.725 265.492 469.575 273.427 461.64C275.352 459.714 278.625 457.861 282.565 456.162C286.479 454.475 290.949 452.982 295.184 451.741C299.415 450.501 303.392 449.517 306.312 448.843C307.758 448.509 308.943 448.252 309.771 448.077Z" fill="#5DAA43" stroke="#C1E445" stroke-width="2"/>
<path d="M369.736 445.947C369.733 445.976 369.731 446.005 369.728 446.035C369.638 446.949 369.501 448.266 369.311 449.872C368.93 453.086 368.336 457.453 367.487 462.074C366.637 466.698 365.534 471.554 364.139 475.753C362.732 479.989 361.073 483.411 359.183 485.301C351.248 493.236 339.098 493.716 332.038 486.656C324.977 479.595 325.458 467.445 333.392 459.51C335.318 457.585 338.59 455.731 342.53 454.032C346.444 452.345 350.915 450.853 355.149 449.612C359.38 448.371 363.357 447.387 366.278 446.713C367.723 446.379 368.909 446.122 369.736 445.947Z" fill="#5DAA43" stroke="#C1E445" stroke-width="2"/>
<path d="M428.043 402.963C420.835 410.003 399.883 424.084 373.734 424.084C347.585 424.084 301.153 427.101 281.206 428.61" stroke="#C1E445" stroke-width="4"/>
<path d="M308.996 389.263C324.675 397.608 344.236 408.273 349.315 410.977C357.533 415.354 374.677 427.277 399.114 419.702" stroke="#C1E445" stroke-width="4"/>
<path d="M347.5 424.698C324.864 428.918 303.433 456.78 289.272 471.446" stroke="#C1E445" stroke-width="4"/>
<path d="M284.59 336.246C345.437 360.887 344.714 417.341 383.243 422.498" stroke="#C1E445" stroke-width="4"/>
<path d="M390.505 421.525L348.784 470.022" stroke="#C1E445" stroke-width="4"/>
<mask id="mask43" mask-type="alpha" maskUnits="userSpaceOnUse" x="522" y="189" width="208" height="226">
<path d="M580.25 254.8C577.673 252.171 575.917 250.38 575.984 244.937C576.13 233.005 582.591 229.81 591.889 225.36C591.768 219.771 598.772 212.686 608.628 213.368C616.284 205.375 623.394 203.209 636.452 207.177C638.148 207.692 639.634 208.297 640.914 208.981C648.699 212.243 650.579 217.887 647.523 224.683L648.172 225.686C653.142 229.552 657.357 234.303 653.11 243.274C651.58 246.508 648.854 247.763 645.661 249.233C645.113 249.485 644.504 249.703 643.848 249.937C639.736 251.405 633.775 253.535 629.287 269.061C627.365 283.641 629.296 288.799 634.219 300.715C637.952 309.748 641.556 317.056 644.842 323.719C654.814 343.937 661.857 358.217 660.669 396.765C637.333 401.912 625.632 402.481 607.37 393.624C602.746 391.491 597.722 388.735 591.982 385.274C600.397 341.324 598.701 329.817 595.461 307.842C595.373 307.246 595.284 306.642 595.194 306.029C592.919 297.975 591.307 283.854 590.663 273.313C589.886 260.596 585.785 258.253 582.631 256.451C581.726 255.934 580.898 255.461 580.25 254.8Z" fill="black"/>
</mask>
<g mask="url(#mask43)">
<path fill-rule="evenodd" clip-rule="evenodd" d="M124 46.9633H790V760.963H124V46.9633ZM674.952 372.963C674.952 485.077 584.065 575.963 471.952 575.963C359.838 575.963 268.952 485.077 268.952 372.963C268.952 260.85 359.838 169.963 471.952 169.963C516.033 169.963 556.833 184.014 590.118 207.881C592.923 206.144 596.529 205.084 600.628 205.368C608.284 197.375 615.394 195.208 628.451 199.177C630.148 199.692 631.634 200.297 632.913 200.981C640.699 204.243 642.579 209.887 639.523 216.683L640.172 217.686C645.141 221.552 649.357 226.303 645.11 235.274C643.58 238.508 640.854 239.762 637.661 241.233C637.113 241.485 636.504 241.703 635.847 241.937C634.07 242.572 631.946 243.33 629.746 245.242C658.015 280.124 674.952 324.566 674.952 372.963Z" fill="#C17F5F"/>
</g>
<mask id="mask44" mask-type="alpha" maskUnits="userSpaceOnUse" x="256" y="313" width="182" height="199">
<path d="M317.509 434.221C317.487 434.239 317.464 434.258 317.441 434.277C316.732 434.86 315.704 435.694 314.433 436.695C311.891 438.698 308.384 441.367 304.516 444.033C300.644 446.703 296.431 449.356 292.476 451.339C288.486 453.339 284.893 454.586 282.22 454.586C270.998 454.586 262.067 446.334 262.067 436.349C262.067 426.364 270.998 418.112 282.22 418.112C284.943 418.112 288.568 419.115 292.555 420.7C296.516 422.275 300.732 424.381 304.604 426.497C308.472 428.612 311.981 430.729 314.522 432.317C315.78 433.103 316.801 433.759 317.509 434.221Z" fill="#AE6152" stroke="#AE6152" stroke-width="2"/>
<path d="M343.964 410.954C343.936 410.959 343.907 410.964 343.877 410.968C342.971 411.119 341.664 411.327 340.063 411.559C336.86 412.022 332.488 412.58 327.805 412.955C323.118 413.331 318.142 413.523 313.726 413.262C309.27 412.999 305.535 412.282 303.22 410.946C293.502 405.335 289.894 393.723 294.886 385.076C299.878 376.429 311.739 373.748 321.457 379.359C323.815 380.72 326.453 383.401 329.113 386.767C331.756 390.111 334.355 394.044 336.649 397.812C338.942 401.578 340.922 405.165 342.329 407.812C343.026 409.121 343.581 410.2 343.964 410.954Z" fill="#AE6152" stroke="#AE6152" stroke-width="2"/>
<path d="M315.758 356.196C315.729 356.201 315.7 356.206 315.671 356.211C314.765 356.361 313.458 356.569 311.857 356.801C308.654 357.265 304.282 357.822 299.599 358.197C294.912 358.573 289.936 358.765 285.519 358.504C281.063 358.241 277.329 357.524 275.014 356.188C265.296 350.577 261.687 338.965 266.68 330.318C271.672 321.671 283.533 318.99 293.251 324.601C295.609 325.963 298.246 328.643 300.907 332.01C303.55 335.354 306.148 339.286 308.443 343.055C310.736 346.821 312.716 350.407 314.123 353.054C314.82 354.364 315.375 355.442 315.758 356.196Z" fill="#AE6152" stroke="#AE6152" stroke-width="2"/>
<path d="M317.806 456.089C317.804 456.118 317.801 456.147 317.798 456.177C317.708 457.091 317.571 458.408 317.381 460.014C317 463.228 316.406 467.595 315.557 472.216C314.707 476.841 313.604 481.696 312.21 485.895C310.802 490.131 309.143 493.553 307.253 495.443C299.318 503.378 287.168 503.858 280.108 496.798C273.048 489.737 273.528 477.587 281.462 469.652C283.388 467.727 286.66 465.873 290.6 464.174C294.514 462.487 298.985 460.995 303.219 459.754C307.451 458.514 311.428 457.529 314.348 456.855C315.793 456.522 316.979 456.264 317.806 456.089Z" fill="#AE6152" stroke="#AE6152" stroke-width="2"/>
<path d="M377.772 453.959C377.769 453.988 377.766 454.018 377.763 454.047C377.674 454.961 377.537 456.278 377.346 457.884C376.965 461.098 376.372 465.465 375.523 470.086C374.672 474.711 373.57 479.566 372.175 483.765C370.768 488.001 369.109 491.423 367.219 493.313C359.284 501.248 347.133 501.728 340.073 494.668C333.013 487.608 333.493 475.457 341.428 467.522C343.353 465.597 346.626 463.743 350.566 462.044C354.48 460.357 358.95 458.865 363.185 457.624C367.416 456.384 371.393 455.4 374.313 454.725C375.759 454.392 376.944 454.134 377.772 453.959Z" fill="#AE6152" stroke="#AE6152" stroke-width="2"/>
<path d="M436.079 410.976C428.871 418.016 407.919 432.096 381.769 432.096C355.62 432.096 309.189 435.113 289.242 436.622" stroke="#AE6152" stroke-width="4"/>
<path d="M317.032 397.275C332.711 405.62 352.272 416.285 357.35 418.99C365.569 423.366 382.713 435.289 407.15 427.714" stroke="#AE6152" stroke-width="4"/>
<path d="M355.536 432.71C332.899 436.93 311.469 464.792 297.308 479.459" stroke="#AE6152" stroke-width="4"/>
<path d="M292.626 344.258C353.473 368.899 352.75 425.354 391.279 430.51" stroke="#AE6152" stroke-width="4"/>
<path d="M398.541 429.537L356.819 478.034" stroke="#AE6152" stroke-width="4"/>
</mask>
<g mask="url(#mask44)">
<path d="M471.95 477.963C471.95 513.31 450.46 541.963 423.95 541.963C397.441 541.963 375.95 513.31 375.95 477.963C375.95 442.617 397.441 413.963 423.95 413.963C450.46 413.963 471.95 442.617 471.95 477.963Z" fill="#C17F5F"/>
<path fill-rule="evenodd" clip-rule="evenodd" d="M736 111.963H202V655.963H736V111.963ZM285.736 453.807C284.536 451.045 283.395 448.251 282.315 445.426C279.278 446.748 276.471 447.57 274.185 447.57C262.502 447.57 253.032 438.958 253.032 428.334C253.032 418.312 261.459 410.08 272.221 409.179C270.105 397.427 269 385.324 269 372.963C269 365.364 269.418 357.863 270.231 350.48C268.784 350.11 267.514 349.636 266.479 349.039C256.362 343.197 252.466 331.004 257.778 321.803C261.794 314.848 269.921 311.594 278.019 312.943C303.614 230.13 380.781 169.963 472 169.963C584.114 169.963 675 260.85 675 372.963C675 485.077 584.114 575.963 472 575.963C401.133 575.963 338.748 539.65 302.436 484.616C301.663 486.035 300.827 487.232 299.925 488.135C291.664 496.395 278.878 497.002 271.365 489.489C263.853 481.977 264.46 469.19 272.72 460.93C275.384 458.266 280.299 455.853 285.736 453.807Z" fill="#C17F5F"/>
</g>
<mask id="mask45" mask-type="alpha" maskUnits="userSpaceOnUse" x="256" y="313" width="182" height="199">
<path d="M317.514 434.226C317.492 434.244 317.469 434.263 317.446 434.282C316.736 434.865 315.709 435.699 314.438 436.7C311.896 438.703 308.389 441.371 304.521 444.038C300.649 446.707 296.436 449.361 292.481 451.344C288.49 453.344 284.898 454.59 282.225 454.59C271.003 454.59 262.072 446.338 262.072 436.354C262.072 426.369 271.003 418.117 282.225 418.117C284.948 418.117 288.572 419.12 292.56 420.705C296.521 422.279 300.737 424.385 304.609 426.502C308.477 428.617 311.985 430.733 314.527 432.322C315.785 433.108 316.806 433.764 317.514 434.226Z" fill="#AE6152" stroke="#AE6152" stroke-width="2"/>
<path d="M343.969 410.959C343.94 410.963 343.911 410.968 343.882 410.973C342.976 411.123 341.669 411.331 340.068 411.563C336.865 412.027 332.493 412.584 327.81 412.96C323.123 413.336 318.147 413.527 313.731 413.267C309.274 413.004 305.54 412.287 303.225 410.95C293.507 405.34 289.898 393.728 294.891 385.081C299.883 376.434 311.744 373.753 321.462 379.363C323.82 380.725 326.458 383.406 329.118 386.772C331.761 390.116 334.36 394.048 336.654 397.817C338.947 401.583 340.927 405.17 342.334 407.816C343.031 409.126 343.586 410.205 343.969 410.959Z" fill="#AE6152" stroke="#AE6152" stroke-width="2"/>
<path d="M315.763 356.201C315.734 356.206 315.705 356.21 315.676 356.215C314.77 356.365 313.463 356.574 311.862 356.805C308.659 357.269 304.287 357.826 299.604 358.202C294.916 358.578 289.941 358.769 285.524 358.509C281.068 358.246 277.334 357.529 275.019 356.193C265.301 350.582 261.692 338.97 266.685 330.323C271.677 321.676 283.538 318.995 293.256 324.606C295.614 325.967 298.251 328.648 300.912 332.014C303.555 335.358 306.153 339.29 308.448 343.059C310.741 346.825 312.721 350.412 314.128 353.058C314.824 354.368 315.38 355.447 315.763 356.201Z" fill="#AE6152" stroke="#AE6152" stroke-width="2"/>
<path d="M317.811 456.094C317.808 456.123 317.806 456.152 317.803 456.182C317.713 457.096 317.576 458.412 317.386 460.019C317.005 463.232 316.411 467.6 315.562 472.22C314.712 476.845 313.609 481.701 312.214 485.9C310.807 490.136 309.148 493.558 307.258 495.448C299.323 503.382 287.173 503.863 280.113 496.802C273.052 489.742 273.533 477.592 281.467 469.657C283.393 467.731 286.665 465.878 290.605 464.179C294.519 462.491 298.99 460.999 303.224 459.758C307.455 458.518 311.432 457.534 314.353 456.86C315.798 456.526 316.984 456.269 317.811 456.094Z" fill="#AE6152" stroke="#AE6152" stroke-width="2"/>
<path d="M377.777 453.964C377.774 453.993 377.771 454.022 377.768 454.052C377.679 454.966 377.541 456.283 377.351 457.889C376.97 461.102 376.377 465.47 375.527 470.09C374.677 474.715 373.575 479.571 372.18 483.77C370.773 488.006 369.114 491.428 367.223 493.318C359.289 501.252 347.138 501.733 340.078 494.672C333.018 487.612 333.498 475.462 341.433 467.527C343.358 465.602 346.631 463.748 350.571 462.049C354.485 460.362 358.955 458.869 363.19 457.628C367.421 456.388 371.398 455.404 374.318 454.73C375.764 454.396 376.949 454.139 377.777 453.964Z" fill="#AE6152" stroke="#AE6152" stroke-width="2"/>
<path d="M436.083 410.98C428.876 418.02 407.923 432.101 381.774 432.101C355.625 432.101 309.194 435.118 289.247 436.626" stroke="#AE6152" stroke-width="4"/>
<path d="M317.037 397.28C332.715 405.625 352.277 416.29 357.355 418.994C365.574 423.371 382.717 435.294 407.154 427.719" stroke="#AE6152" stroke-width="4"/>
<path d="M355.541 432.715C332.904 436.935 311.474 464.797 297.313 479.463" stroke="#AE6152" stroke-width="4"/>
<path d="M292.631 344.263C353.477 368.903 352.755 425.358 391.284 430.515" stroke="#AE6152" stroke-width="4"/>
<path d="M398.546 429.542L356.824 478.039" stroke="#AE6152" stroke-width="4"/>
</mask>
<g mask="url(#mask45)">
<path fill-rule="evenodd" clip-rule="evenodd" d="M472 575.963C584.114 575.963 675 485.077 675 372.963C675 260.85 584.114 169.963 472 169.963C380.781 169.963 303.614 230.13 278.019 312.943C280.634 313.378 283.246 314.294 285.716 315.72C294.064 320.54 304.64 340.025 308.083 346.69C324.72 358.377 335.106 372.678 343.935 385.544C344.638 386.568 345.33 387.581 346.013 388.581C351.329 396.367 356.112 403.372 361.557 408.905C367.083 414.52 373.204 418.519 381.106 420.111C386.383 420.358 392.194 419.75 398.522 417.789L398.534 417.828C412.022 413.211 422.159 405.912 426.646 401.53L429.441 404.391C426.415 407.347 421.099 411.467 414.063 415.323C417.254 414.432 420.561 413.963 423.95 413.963C450.46 413.963 471.95 442.617 471.95 477.963C471.95 513.31 450.46 541.963 423.95 541.963C397.441 541.963 375.95 513.31 375.95 477.963C375.95 452.817 386.827 431.058 402.65 420.594C398.978 421.991 395.042 423.212 390.887 424.146L370.553 447.781C369.65 456.185 366.607 479.289 359.89 486.005C351.63 494.265 338.843 494.872 331.331 487.36C323.818 479.847 324.425 467.061 332.686 458.8C339.185 452.301 359.085 447.296 367.276 445.457L384.619 425.298C381.111 425.8 377.475 426.081 373.734 426.081C366.314 426.081 357.248 426.325 347.616 426.709C336.978 428.78 326.406 436.404 316.576 445.611C314.457 447.596 312.394 449.632 310.39 451.679C309.443 459.816 307.055 476.146 302.437 484.616C338.748 539.65 401.133 575.963 472 575.963ZM270.231 350.48C279.888 352.949 297.406 350.771 305.244 349.586C321.589 360.915 331.788 374.912 340.637 387.807C341.335 388.824 342.026 389.836 342.712 390.842C347.991 398.577 352.991 405.903 358.706 411.71C360.203 413.231 361.754 414.655 363.379 415.961C359.267 414.241 355.781 412.286 352.939 410.691L352.939 410.691C351.969 410.147 351.074 409.645 350.255 409.209C348.436 408.24 344.748 406.244 340.036 403.694L339.763 403.546L338.271 402.739L336.445 401.751C333.178 395.396 322.401 375.373 313.922 370.477C303.805 364.636 291.297 367.36 285.985 376.561C280.673 385.761 284.568 397.955 294.685 403.797C302.488 408.301 323.679 405.798 332.965 404.416C334.732 405.372 336.42 406.285 337.996 407.138L338.113 407.202C342.834 409.757 346.543 411.764 348.375 412.74C349.147 413.151 350.01 413.637 350.962 414.173C355.212 416.569 361.235 419.963 368.838 422.112C351.806 422.318 328.524 423.508 309.005 424.712C302.658 420.641 283.807 409.097 274.185 409.097C273.523 409.097 272.868 409.125 272.221 409.179C270.105 397.427 269 385.324 269 372.963C269 365.364 269.418 357.863 270.231 350.48ZM309.229 447.167C310.742 445.652 312.281 444.154 313.841 442.692C320.235 436.703 327.186 431.124 334.48 427.297C325.407 427.743 316.263 428.267 307.869 428.79C302.46 433.099 291.368 441.485 282.315 445.427C283.395 448.251 284.536 451.045 285.736 453.807C294.766 450.408 305.237 448.019 309.229 447.167Z" fill="#611F12"/>
</g>
</g>
<defs>
<filter id="filter0_d" x="104.272" y="501.118" width="203.867" height="149.654" filterUnits="userSpaceOnUse" color-interpolation-filters="sRGB">
<feFlood flood-opacity="0" result="BackgroundImageFix"/>
<feColorMatrix in="SourceAlpha" type="matrix" values="0 0 0 0 0 0 0 0 0 0 0 0 0 0 0 0 0 0 127 0"/>
<feOffset dx="4" dy="4"/>
<feColorMatrix type="matrix" values="0 0 0 0 0.0588235 0 0 0 0 0.0588235 0 0 0 0 0.0588235 0 0 0 1 0"/>
<feBlend mode="normal" in2="BackgroundImageFix" result="effect1_dropShadow"/>
<feBlend mode="normal" in="SourceGraphic" in2="effect1_dropShadow" result="shape"/>
</filter>
<filter id="filter1_d" x="64.4242" y="222.781" width="198.955" height="238.109" filterUnits="userSpaceOnUse" color-interpolation-filters="sRGB">
<feFlood flood-opacity="0" result="BackgroundImageFix"/>
<feColorMatrix in="SourceAlpha" type="matrix" values="0 0 0 0 0 0 0 0 0 0 0 0 0 0 0 0 0 0 127 0"/>
<feOffset dx="8" dy="8"/>
<feColorMatrix type="matrix" values="0 0 0 0 0.0588235 0 0 0 0 0.0588235 0 0 0 0 0.0588235 0 0 0 1 0"/>
<feBlend mode="normal" in2="BackgroundImageFix" result="effect1_dropShadow"/>
<feBlend mode="normal" in="SourceGraphic" in2="effect1_dropShadow" result="shape"/>
</filter>
<filter id="filter2_d" x="273.092" y="661.643" width="197.974" height="237.558" filterUnits="userSpaceOnUse" color-interpolation-filters="sRGB">
<feFlood flood-opacity="0" result="BackgroundImageFix"/>
<feColorMatrix in="SourceAlpha" type="matrix" values="0 0 0 0 0 0 0 0 0 0 0 0 0 0 0 0 0 0 127 0"/>
<feOffset dx="8" dy="8"/>
<feColorMatrix type="matrix" values="0 0 0 0 0.0588235 0 0 0 0 0.0588235 0 0 0 0 0.0588235 0 0 0 1 0"/>
<feBlend mode="normal" in2="BackgroundImageFix" result="effect1_dropShadow"/>
<feBlend mode="normal" in="SourceGraphic" in2="effect1_dropShadow" result="shape"/>
</filter>
<filter id="filter3_d" x="692.951" y="98.9633" width="247.76" height="457.771" filterUnits="userSpaceOnUse" color-interpolation-filters="sRGB">
<feFlood flood-opacity="0" result="BackgroundImageFix"/>
<feColorMatrix in="SourceAlpha" type="matrix" values="0 0 0 0 0 0 0 0 0 0 0 0 0 0 0 0 0 0 127 0"/>
<feOffset dx="8" dy="8"/>
<feColorMatrix type="matrix" values="0 0 0 0 0.0588235 0 0 0 0 0.0588235 0 0 0 0 0.0588235 0 0 0 1 0"/>
<feBlend mode="normal" in2="BackgroundImageFix" result="effect1_dropShadow"/>
<feBlend mode="normal" in="SourceGraphic" in2="effect1_dropShadow" result="shape"/>
</filter>
<filter id="filter4_d" x="270.24" y="5.57251" width="245.035" height="182.242" filterUnits="userSpaceOnUse" color-interpolation-filters="sRGB">
<feFlood flood-opacity="0" result="BackgroundImageFix"/>
<feColorMatrix in="SourceAlpha" type="matrix" values="0 0 0 0 0 0 0 0 0 0 0 0 0 0 0 0 0 0 127 0"/>
<feOffset dx="4" dy="4"/>
<feColorMatrix type="matrix" values="0 0 0 0 0.0588235 0 0 0 0 0.0588235 0 0 0 0 0.0588235 0 0 0 1 0"/>
<feBlend mode="normal" in2="BackgroundImageFix" result="effect1_dropShadow"/>
<feBlend mode="normal" in="SourceGraphic" in2="effect1_dropShadow" result="shape"/>
</filter>
<filter id="filter5_d" x="0.000488281" y="85.9633" width="147.998" height="137.802" filterUnits="userSpaceOnUse" color-interpolation-filters="sRGB">
<feFlood flood-opacity="0" result="BackgroundImageFix"/>
<feColorMatrix in="SourceAlpha" type="matrix" values="0 0 0 0 0 0 0 0 0 0 0 0 0 0 0 0 0 0 127 0"/>
<feOffset dx="8" dy="8"/>
<feColorMatrix type="matrix" values="0 0 0 0 0.0588235 0 0 0 0 0.0588235 0 0 0 0 0.0588235 0 0 0 1 0"/>
<feBlend mode="normal" in2="BackgroundImageFix" result="effect1_dropShadow"/>
<feBlend mode="normal" in="SourceGraphic" in2="effect1_dropShadow" result="shape"/>
</filter>
<filter id="filter6_d" x="528.008" y="625.551" width="266.282" height="96.4268" filterUnits="userSpaceOnUse" color-interpolation-filters="sRGB">
<feFlood flood-opacity="0" result="BackgroundImageFix"/>
<feColorMatrix in="SourceAlpha" type="matrix" values="0 0 0 0 0 0 0 0 0 0 0 0 0 0 0 0 0 0 127 0"/>
<feOffset dx="4" dy="4"/>
<feColorMatrix type="matrix" values="0 0 0 0 0.0588235 0 0 0 0 0.0588235 0 0 0 0 0.0588235 0 0 0 1 0"/>
<feBlend mode="normal" in2="BackgroundImageFix" result="effect1_dropShadow"/>
<feBlend mode="normal" in="SourceGraphic" in2="effect1_dropShadow" result="shape"/>
</filter>
<filter id="filter7_d" x="222.951" y="123.963" width="538.727" height="529" filterUnits="userSpaceOnUse" color-interpolation-filters="sRGB">
<feFlood flood-opacity="0" result="BackgroundImageFix"/>
<feColorMatrix in="SourceAlpha" type="matrix" values="0 0 0 0 0 0 0 0 0 0 0 0 0 0 0 0 0 0 127 0"/>
<feOffset dx="32" dy="32"/>
<feColorMatrix type="matrix" values="0 0 0 0 0.0588235 0 0 0 0 0.0588235 0 0 0 0 0.0588235 0 0 0 1 0"/>
<feBlend mode="normal" in2="BackgroundImageFix" result="effect1_dropShadow"/>
<feBlend mode="normal" in="SourceGraphic" in2="effect1_dropShadow" result="shape"/>
</filter>
<filter id="filter8_d" x="323.897" y="154.646" width="304.728" height="285.215" filterUnits="userSpaceOnUse" color-interpolation-filters="sRGB">
<feFlood flood-opacity="0" result="BackgroundImageFix"/>
<feColorMatrix in="SourceAlpha" type="matrix" values="0 0 0 0 0 0 0 0 0 0 0 0 0 0 0 0 0 0 127 0"/>
<feOffset dx="2" dy="2"/>
<feColorMatrix type="matrix" values="0 0 0 0 0.795833 0 0 0 0 0.319991 0 0 0 0 0.215538 0 0 0 1 0"/>
<feBlend mode="normal" in2="BackgroundImageFix" result="effect1_dropShadow"/>
<feBlend mode="normal" in="SourceGraphic" in2="effect1_dropShadow" result="shape"/>
</filter>
<filter id="filter9_d" x="339.41" y="67.2151" width="305.965" height="388.748" filterUnits="userSpaceOnUse" color-interpolation-filters="sRGB">
<feFlood flood-opacity="0" result="BackgroundImageFix"/>
<feColorMatrix in="SourceAlpha" type="matrix" values="0 0 0 0 0 0 0 0 0 0 0 0 0 0 0 0 0 0 127 0"/>
<feOffset dx="2" dy="2"/>
<feColorMatrix type="matrix" values="0 0 0 0 0.795833 0 0 0 0 0.319991 0 0 0 0 0.215538 0 0 0 1 0"/>
<feBlend mode="normal" in2="BackgroundImageFix" result="effect1_dropShadow"/>
<feBlend mode="normal" in="SourceGraphic" in2="effect1_dropShadow" result="shape"/>
</filter>
<filter id="filter10_d" x="232.005" y="368.463" width="298.138" height="132.036" filterUnits="userSpaceOnUse" color-interpolation-filters="sRGB">
<feFlood flood-opacity="0" result="BackgroundImageFix"/>
<feColorMatrix in="SourceAlpha" type="matrix" values="0 0 0 0 0 0 0 0 0 0 0 0 0 0 0 0 0 0 127 0"/>
<feOffset dx="2" dy="2"/>
<feColorMatrix type="matrix" values="0 0 0 0 0.795833 0 0 0 0 0.319991 0 0 0 0 0.215538 0 0 0 1 0"/>
<feBlend mode="normal" in2="BackgroundImageFix" result="effect1_dropShadow"/>
<feBlend mode="normal" in="SourceGraphic" in2="effect1_dropShadow" result="shape"/>
</filter>
<filter id="filter11_d" x="214.005" y="386.463" width="298.138" height="132.036" filterUnits="userSpaceOnUse" color-interpolation-filters="sRGB">
<feFlood flood-opacity="0" result="BackgroundImageFix"/>
<feColorMatrix in="SourceAlpha" type="matrix" values="0 0 0 0 0 0 0 0 0 0 0 0 0 0 0 0 0 0 127 0"/>
<feOffset dx="2" dy="2"/>
<feColorMatrix type="matrix" values="0 0 0 0 0.795833 0 0 0 0 0.319991 0 0 0 0 0.215538 0 0 0 1 0"/>
<feBlend mode="normal" in2="BackgroundImageFix" result="effect1_dropShadow"/>
<feBlend mode="normal" in="SourceGraphic" in2="effect1_dropShadow" result="shape"/>
</filter>
<filter id="filter12_d" x="297.747" y="409.963" width="119.892" height="230.796" filterUnits="userSpaceOnUse" color-interpolation-filters="sRGB">
<feFlood flood-opacity="0" result="BackgroundImageFix"/>
<feColorMatrix in="SourceAlpha" type="matrix" values="0 0 0 0 0 0 0 0 0 0 0 0 0 0 0 0 0 0 127 0"/>
<feOffset dx="2" dy="2"/>
<feColorMatrix type="matrix" values="0 0 0 0 0.795833 0 0 0 0 0.319991 0 0 0 0 0.215538 0 0 0 1 0"/>
<feBlend mode="normal" in2="BackgroundImageFix" result="effect1_dropShadow"/>
<feBlend mode="normal" in="SourceGraphic" in2="effect1_dropShadow" result="shape"/>
</filter>
<filter id="filter13_d" x="545.037" y="455.553" width="230.797" height="119.892" filterUnits="userSpaceOnUse" color-interpolation-filters="sRGB">
<feFlood flood-opacity="0" result="BackgroundImageFix"/>
<feColorMatrix in="SourceAlpha" type="matrix" values="0 0 0 0 0 0 0 0 0 0 0 0 0 0 0 0 0 0 127 0"/>
<feOffset dx="2" dy="2"/>
<feColorMatrix type="matrix" values="0 0 0 0 0.795833 0 0 0 0 0.319991 0 0 0 0 0.215538 0 0 0 1 0"/>
<feBlend mode="normal" in2="BackgroundImageFix" result="effect1_dropShadow"/>
<feBlend mode="normal" in="SourceGraphic" in2="effect1_dropShadow" result="shape"/>
</filter>
<filter id="filter14_d" x="432.639" y="167.696" width="230.797" height="119.892" filterUnits="userSpaceOnUse" color-interpolation-filters="sRGB">
<feFlood flood-opacity="0" result="BackgroundImageFix"/>
<feColorMatrix in="SourceAlpha" type="matrix" values="0 0 0 0 0 0 0 0 0 0 0 0 0 0 0 0 0 0 127 0"/>
<feOffset dx="2" dy="2"/>
<feColorMatrix type="matrix" values="0 0 0 0 0.795833 0 0 0 0 0.319991 0 0 0 0 0.215538 0 0 0 1 0"/>
<feBlend mode="normal" in2="BackgroundImageFix" result="effect1_dropShadow"/>
<feBlend mode="normal" in="SourceGraphic" in2="effect1_dropShadow" result="shape"/>
</filter>
<filter id="filter15_d" x="450.951" y="194.131" width="235.942" height="77.8737" filterUnits="userSpaceOnUse" color-interpolation-filters="sRGB">
<feFlood flood-opacity="0" result="BackgroundImageFix"/>
<feColorMatrix in="SourceAlpha" type="matrix" values="0 0 0 0 0 0 0 0 0 0 0 0 0 0 0 0 0 0 127 0"/>
<feOffset dx="2" dy="2"/>
<feColorMatrix type="matrix" values="0 0 0 0 0.795833 0 0 0 0 0.319991 0 0 0 0 0.215538 0 0 0 1 0"/>
<feBlend mode="normal" in2="BackgroundImageFix" result="effect1_dropShadow"/>
<feBlend mode="normal" in="SourceGraphic" in2="effect1_dropShadow" result="shape"/>
</filter>
<filter id="filter16_d" x="186.897" y="290.708" width="300.728" height="98.1541" filterUnits="userSpaceOnUse" color-interpolation-filters="sRGB">
<feFlood flood-opacity="0" result="BackgroundImageFix"/>
<feColorMatrix in="SourceAlpha" type="matrix" values="0 0 0 0 0 0 0 0 0 0 0 0 0 0 0 0 0 0 127 0"/>
<feOffset dx="2" dy="2"/>
<feColorMatrix type="matrix" values="0 0 0 0 1 0 0 0 0 0.439667 0 0 0 0 0.316667 0 0 0 1 0"/>
<feBlend mode="normal" in2="BackgroundImageFix" result="effect1_dropShadow"/>
<feBlend mode="normal" in="SourceGraphic" in2="effect1_dropShadow" result="shape"/>
</filter>
<filter id="filter17_d" x="200.981" y="426.708" width="254.422" height="135.84" filterUnits="userSpaceOnUse" color-interpolation-filters="sRGB">
<feFlood flood-opacity="0" result="BackgroundImageFix"/>
<feColorMatrix in="SourceAlpha" type="matrix" values="0 0 0 0 0 0 0 0 0 0 0 0 0 0 0 0 0 0 127 0"/>
<feOffset dx="2" dy="2"/>
<feColorMatrix type="matrix" values="0 0 0 0 1 0 0 0 0 0.439667 0 0 0 0 0.316667 0 0 0 1 0"/>
<feBlend mode="normal" in2="BackgroundImageFix" result="effect1_dropShadow"/>
<feBlend mode="normal" in="SourceGraphic" in2="effect1_dropShadow" result="shape"/>
</filter>
<filter id="filter18_d" x="446.61" y="-42.3235" width="180.605" height="583.718" filterUnits="userSpaceOnUse" color-interpolation-filters="sRGB">
<feFlood flood-opacity="0" result="BackgroundImageFix"/>
<feColorMatrix in="SourceAlpha" type="matrix" values="0 0 0 0 0 0 0 0 0 0 0 0 0 0 0 0 0 0 127 0"/>
<feOffset dx="2" dy="2"/>
<feColorMatrix type="matrix" values="0 0 0 0 1 0 0 0 0 0.439667 0 0 0 0 0.316667 0 0 0 1 0"/>
<feBlend mode="normal" in2="BackgroundImageFix" result="effect1_dropShadow"/>
<feBlend mode="normal" in="SourceGraphic" in2="effect1_dropShadow" result="shape"/>
</filter>
<filter id="filter19_d" x="375.951" y="345.963" width="240.392" height="204" filterUnits="userSpaceOnUse" color-interpolation-filters="sRGB">
<feFlood flood-opacity="0" result="BackgroundImageFix"/>
<feColorMatrix in="SourceAlpha" type="matrix" values="0 0 0 0 0 0 0 0 0 0 0 0 0 0 0 0 0 0 127 0"/>
<feOffset dx="8" dy="8"/>
<feColorMatrix type="matrix" values="0 0 0 0 0.380392 0 0 0 0 0.121569 0 0 0 0 0.0705882 0 0 0 1 0"/>
<feBlend mode="normal" in2="BackgroundImageFix" result="effect1_dropShadow"/>
<feBlend mode="normal" in="SourceGraphic" in2="effect1_dropShadow" result="shape"/>
</filter>
<filter id="filter20_d" x="351.878" y="184.963" width="163.546" height="203.721" filterUnits="userSpaceOnUse" color-interpolation-filters="sRGB">
<feFlood flood-opacity="0" result="BackgroundImageFix"/>
<feColorMatrix in="SourceAlpha" type="matrix" values="0 0 0 0 0 0 0 0 0 0 0 0 0 0 0 0 0 0 127 0"/>
<feOffset dx="4" dy="4"/>
<feColorMatrix type="matrix" values="0 0 0 0 0.380392 0 0 0 0 0.121569 0 0 0 0 0.0705882 0 0 0 1 0"/>
<feBlend mode="normal" in2="BackgroundImageFix" result="effect1_dropShadow"/>
<feBlend mode="normal" in="SourceGraphic" in2="effect1_dropShadow" result="shape"/>
</filter>
</defs>
</svg>
