<svg width="192" height="192" viewBox="0 0 192 192" fill="none" xmlns="http://www.w3.org/2000/svg">
<rect width="192" height="192" fill="#313231"/>
<path fill-rule="evenodd" clip-rule="evenodd" d="M126.727 66.9829C118.651 53.5881 112.068 42.6702 120.947 25C99.2868 32.7712 101.929 51.2366 105.187 74.0139C105.902 79.0133 106.647 84.2205 107.172 89.5678C97.8959 79.3322 91.9509 66.4461 95.658 44C84.0706 69.1059 84.0545 93.2286 106.662 113.914C79.1296 106.814 70.7681 92.1682 73.2403 61C54.3747 80.1809 50 96.8381 50 114C50 139.405 70.5949 160 96 160C121.405 160 142 139.405 142 114C142 92.3133 133.792 78.7003 126.727 66.9829Z" fill="#D6F039"/>
</svg>
