<svg width="148" height="44" viewBox="0 0 148 44" fill="none" xmlns="http://www.w3.org/2000/svg">
<g clip-path="url(#clip0)">
<path d="M54.8109 34.784C54.7389 34.808 54.4629 34.916 53.9829 35.108C53.5029 35.3 52.8789 35.396 52.1109 35.396C47.5989 35.396 45.3429 33.2 45.3429 28.808V16.964H49.3029V28.232C49.3029 29.336 49.4949 30.152 49.8789 30.68C50.2869 31.208 51.0309 31.472 52.1109 31.472C53.1909 31.472 53.9109 31.184 54.2709 30.608C54.6309 30.008 54.8109 29.168 54.8109 28.088V16.964H58.7709V35H55.0629L54.8109 34.784ZM83.4604 24.056C83.4604 22.76 83.2804 21.824 82.9204 21.248C82.5844 20.672 82.0324 20.384 81.2644 20.384C80.7124 20.384 79.9684 20.552 79.0324 20.888L78.4204 21.14C78.4684 21.284 78.5044 21.452 78.5284 21.644C78.5524 21.836 78.5644 22.016 78.5644 22.184V35H74.6044V24.164C74.6044 22.964 74.3284 22.04 73.7764 21.392C73.2244 20.744 72.4804 20.42 71.5444 20.42C70.7044 20.42 69.8284 20.684 68.9164 21.212V35H64.9564V16.964H68.4484L68.9164 17.216C69.7084 16.856 70.6084 16.676 71.6164 16.676C72.4324 16.676 73.2244 16.82 73.9924 17.108C74.7604 17.372 75.4324 17.804 76.0084 18.404C76.3444 18.212 76.8484 17.948 77.5204 17.612C78.9364 16.964 80.3044 16.64 81.6244 16.64C83.3284 16.64 84.7204 17.168 85.8004 18.224C86.8804 19.256 87.4204 20.696 87.4204 22.544V35H83.4604V24.056ZM106.024 35C103.432 35.264 101.56 35.396 100.408 35.396C97.888 35.396 95.884 34.928 94.396 33.992C92.908 33.056 92.164 31.364 92.164 28.916V25.928C92.164 23.552 92.992 21.956 94.648 21.14C95.44 20.756 96.34 20.564 97.348 20.564C98.236 20.564 99.112 20.684 99.976 20.924C100.84 21.164 101.536 21.428 102.064 21.716C102.064 20.828 101.704 20.228 100.984 19.916C100.264 19.58 99.34 19.412 98.212 19.412L98.536 16.676C100.84 16.676 102.532 17.048 103.612 17.792C104.716 18.512 105.388 19.376 105.628 20.384C105.892 21.392 106.024 22.688 106.024 24.272V35ZM102.064 25.928C101.632 25.616 101.02 25.328 100.228 25.064C99.46 24.776 98.752 24.632 98.104 24.632C97.528 24.632 97.06 24.776 96.7 25.064C96.34 25.352 96.16 25.808 96.16 26.432V28.412C96.16 30.596 97.444 31.688 100.012 31.688C100.756 31.688 101.44 31.628 102.064 31.508V25.928ZM130.632 24.056C130.632 22.76 130.452 21.824 130.092 21.248C129.756 20.672 129.204 20.384 128.436 20.384C127.884 20.384 127.14 20.552 126.204 20.888L125.592 21.14C125.64 21.284 125.676 21.452 125.7 21.644C125.724 21.836 125.736 22.016 125.736 22.184V35H121.776V24.164C121.776 22.964 121.5 22.04 120.948 21.392C120.396 20.744 119.652 20.42 118.716 20.42C117.876 20.42 117 20.684 116.088 21.212V35H112.128V16.964H115.62L116.088 17.216C116.88 16.856 117.78 16.676 118.788 16.676C119.604 16.676 120.396 16.82 121.164 17.108C121.932 17.372 122.604 17.804 123.18 18.404C123.516 18.212 124.02 17.948 124.692 17.612C126.108 16.964 127.476 16.64 128.796 16.64C130.5 16.64 131.892 17.168 132.972 18.224C134.052 19.256 134.592 20.696 134.592 22.544V35H130.632V24.056ZM142.972 13.688C142.396 13.688 141.892 13.472 141.46 13.04C141.028 12.608 140.812 12.104 140.812 11.528C140.812 10.976 141.028 10.496 141.46 10.088C141.892 9.656 142.396 9.44 142.972 9.44C143.524 9.44 144.004 9.656 144.412 10.088C144.844 10.496 145.06 10.976 145.06 11.528C145.06 12.104 144.844 12.608 144.412 13.04C144.004 13.472 143.524 13.688 142.972 13.688ZM140.884 16.964H144.844V35H140.884V16.964Z" fill="#D6F039"/>
<path fill-rule="evenodd" clip-rule="evenodd" d="M21.0415 15.3501C19.1907 12.2804 17.6821 9.77843 19.7169 5.729C14.7531 7.5099 15.3585 11.7416 16.1053 16.9614C16.2692 18.107 16.4399 19.3003 16.56 20.5258C14.4344 18.1801 13.072 15.2271 13.9216 10.0832C11.2661 15.8366 11.2624 21.3647 16.4434 26.105C10.1338 24.4781 8.21766 21.1217 8.78421 13.979C4.46083 18.3746 3.4583 22.1919 3.4583 26.1248C3.4583 31.9468 8.17796 36.6665 14 36.6665C19.822 36.6665 24.5416 31.9468 24.5416 26.1248H24.5415C24.5415 21.155 22.6606 18.0353 21.0415 15.3501Z" fill="#D6F039"/>
</g>
<defs>
<clipPath id="clip0">
<rect width="148" height="44" fill="white"/>
</clipPath>
</defs>
</svg>
